<?xml version="1.0" encoding="UTF-8" standalone="no"?>
<!-- Created with Inkscape (http://www.inkscape.org/) -->

<svg
   width="432.57611mm"
   height="277.29999mm"
   viewBox="0 0 432.57611 277.29999"
   version="1.1"
   id="svg1"
   inkscape:version="1.4 (86a8ad7, 2024-10-11)"
   sodipodi:docname="barahitt.svg"
   xml:space="preserve"
   xmlns:inkscape="http://www.inkscape.org/namespaces/inkscape"
   xmlns:sodipodi="http://sodipodi.sourceforge.net/DTD/sodipodi-0.dtd"
   xmlns="http://www.w3.org/2000/svg"
   xmlns:svg="http://www.w3.org/2000/svg"><sodipodi:namedview
     id="namedview1"
     pagecolor="#ffffff"
     bordercolor="#000000"
     borderopacity="0.25"
     inkscape:showpageshadow="2"
     inkscape:pageopacity="0.0"
     inkscape:pagecheckerboard="0"
     inkscape:deskcolor="#d1d1d1"
     inkscape:document-units="mm"
     showguides="true"
     inkscape:zoom="0.70710678"
     inkscape:cx="-241.83052"
     inkscape:cy="1897.1675"
     inkscape:window-width="2560"
     inkscape:window-height="1494"
     inkscape:window-x="-11"
     inkscape:window-y="-11"
     inkscape:window-maximized="1"
     inkscape:current-layer="layer2" /><defs
     id="defs1"><rect
       x="947.04597"
       y="1417.527"
       width="358.94462"
       height="121.67614"
       id="rect15" /><rect
       x="1070.75"
       y="1593.9575"
       width="328.52558"
       height="186.57008"
       id="rect13" /></defs><g
     inkscape:label="Layer 1"
     inkscape:groupmode="layer"
     id="layer1"
     transform="translate(118.00414,-60.324962)"
     sodipodi:insensitive="true"><g
       id="panel977"
       transform="rotate(90,399.08545,1.010412)"><path
         style="fill:none;stroke:#000000;stroke-width:1"
         d="m 458.9,91.3 c 11.50333,-6.971567 23.00667,-7.139031 34.51,0 v 3.1 h 25.9 v -3.1 h 34.56 v 3.1 h 25.9 v -3.1 h 34.56 v 3.1 h 25.9 v -3.1 h 34.56 v 3.1 h 25.9 v -3.1 c 10.13755,-6.659421 21.48027,-7.44255 34.51,0"
         id="path40"
         sodipodi:nodetypes="cccccccccccccccccc" /><path
         style="fill:none;stroke:#000000;stroke-width:1"
         d="m 735.2,91.3 v 30.588 h -3.1 v 25.899 h 3.1 v 30.638 h -3.1 v 25.9 h 3.1 v 30.638 h -3.1 v 25.9 h 3.1 V 291.5 h -3.1 v 25.9 h 3.1 v 30.637 h -3.1 v 25.9 h 3.1 v 30.638 h -3.1 v 25.9 h 3.1 v 30.637 h -3.1 v 25.9 h 3.1 V 517.6"
         id="path41" /><path
         style="fill:none;stroke:#000000;stroke-width:1"
         d="m 735.2,517.6 h -34.51 v -3.1 h -25.9 v 3.1 h -34.56 v -3.1 h -25.9 v 3.1 h -34.56 v -3.1 h -25.9 v 3.1 h -34.56 v -3.1 h -25.9 v 3.1 H 458.9"
         id="path42" /><path
         style="fill:none;stroke:#000000;stroke-width:1"
         d="m 458.9,517.6 v -30.587 h 3.1 v -25.9 h -3.1 v -30.638 h 3.1 v -25.9 h -3.1 v -30.637 h 3.1 v -25.9 h -3.1 V 317.4 h 3.1 v -25.9 h -3.1 v -30.637 h 3.1 v -25.9 h -3.1 v -30.638 h 3.1 v -25.9 h -3.1 v -30.637 h 3.1 v -25.9 h -3.1 V 91.3"
         id="path43" /></g></g><g
     inkscape:groupmode="layer"
     id="layer2"
     inkscape:label="Layer 2"><text
       xml:space="preserve"
       style="font-style:normal;font-variant:normal;font-weight:normal;font-stretch:normal;font-size:2.11667px;font-family:'Tw Cen MT Condensed Extra Bold';-inkscape-font-specification:'Tw Cen MT Condensed Extra Bold, ';text-align:start;writing-mode:lr-tb;direction:ltr;text-anchor:start;fill:none;fill-opacity:1;stroke:#000000;stroke-width:0.765;stroke-dasharray:none;stroke-opacity:1"
       x="119.74055"
       y="-198.68256"
       id="text3"
       transform="scale(1,-1)"><tspan
         sodipodi:role="line"
         id="tspan3"
         style="font-style:normal;font-variant:normal;font-weight:normal;font-stretch:normal;font-size:2.11667px;font-family:'Tw Cen MT Condensed Extra Bold';-inkscape-font-specification:'Tw Cen MT Condensed Extra Bold, ';fill:none;fill-opacity:1;stroke-width:0.765"
         x="119.74055"
         y="-198.68256" /></text><text
       xml:space="preserve"
       style="font-style:normal;font-variant:normal;font-weight:normal;font-stretch:normal;font-size:2.11667px;font-family:MingLiU_HKSCS-ExtB;-inkscape-font-specification:MingLiU_HKSCS-ExtB;text-align:start;writing-mode:lr-tb;direction:ltr;text-anchor:start;fill:none;fill-opacity:1;stroke:#000000;stroke-width:0.765;stroke-dasharray:none;stroke-opacity:1"
       x="110.44108"
       y="189.93053"
       id="text4"><tspan
         sodipodi:role="line"
         id="tspan4"
         style="font-style:normal;font-variant:normal;font-weight:normal;font-stretch:normal;font-family:MingLiU_HKSCS-ExtB;-inkscape-font-specification:MingLiU_HKSCS-ExtB;stroke-width:0.765"
         x="110.44108"
         y="189.93053" /></text><text
       xml:space="preserve"
       style="font-style:normal;font-variant:normal;font-weight:normal;font-stretch:normal;font-size:2.11667px;font-family:MingLiU_HKSCS-ExtB;-inkscape-font-specification:MingLiU_HKSCS-ExtB;text-align:start;writing-mode:lr-tb;direction:ltr;text-anchor:start;fill:none;fill-opacity:1;stroke:none;stroke-width:0.765;stroke-dasharray:none;stroke-opacity:1"
       x="110.86063"
       y="188.62924"
       id="text5"><tspan
         sodipodi:role="line"
         id="tspan5"
         style="stroke:none;stroke-width:0.765"
         x="110.86063"
         y="188.62924" /></text><text
       xml:space="preserve"
       transform="scale(0.26458333)"
       id="text13"
       style="font-style:normal;font-variant:normal;font-weight:normal;font-stretch:condensed;font-size:8px;line-height:1.15;font-family:'Niagara Engraved';-inkscape-font-specification:'Niagara Engraved Condensed';text-align:start;writing-mode:lr-tb;direction:ltr;white-space:pre;shape-inside:url(#rect13);fill:none;fill-opacity:1;stroke:#000000;stroke-width:0;stroke-dasharray:none;stroke-opacity:1" /><text
       xml:space="preserve"
       transform="scale(0.26458333)"
       id="text15"
       style="font-style:normal;font-variant:normal;font-weight:normal;font-stretch:condensed;font-size:18.66666691px;line-height:1.15;font-family:'Niagara Engraved';-inkscape-font-specification:'Niagara Engraved Condensed';text-align:start;writing-mode:lr-tb;direction:ltr;white-space:pre;shape-inside:url(#rect15);fill:none;fill-opacity:1;stroke:#000000;stroke-width:0.188976;stroke-dasharray:none;stroke-opacity:1" /><text
       xml:space="preserve"
       style="font-style:normal;font-variant:normal;font-weight:normal;font-stretch:normal;font-size:7.05556px;line-height:0;font-family:'Comic Sans MS';-inkscape-font-specification:'Comic Sans MS';text-align:start;writing-mode:lr-tb;direction:ltr;text-anchor:start;fill:none;fill-opacity:1;stroke:#000000;stroke-width:0.0499999;stroke-dasharray:none;stroke-opacity:1"
       x="258.62094"
       y="400.27225"
       id="text16"><tspan
         sodipodi:role="line"
         id="tspan16"
         style="font-style:normal;font-variant:normal;font-weight:normal;font-stretch:normal;font-family:'Comic Sans MS';-inkscape-font-specification:'Comic Sans MS';stroke-width:0.05"
         x="258.62094"
         y="400.27225" /></text><text
       xml:space="preserve"
       style="font-style:normal;font-variant:normal;font-weight:normal;font-stretch:condensed;font-size:2.11667px;line-height:1.15;font-family:'Niagara Engraved';-inkscape-font-specification:'Niagara Engraved Condensed';text-align:start;writing-mode:lr-tb;direction:ltr;text-anchor:start;fill:none;fill-opacity:1;stroke:#000000;stroke-width:0;stroke-dasharray:none;stroke-opacity:1"
       x="357.07932"
       y="435.0144"
       id="text14"><tspan
         sodipodi:role="line"
         id="tspan14"
         style="stroke-width:0"
         x="357.07932"
         y="435.0144">kkkkkkkkkkkkkkkkkkkk</tspan></text><g
       id="g16"
       transform="translate(-53.18125,24.077083)"
       style="fill:none;fill-opacity:1;stroke:#000000;stroke-opacity:1"><path
         style="fill:none;fill-opacity:1;stroke-width:1.4;stroke-dasharray:none;paint-order:stroke markers fill;stroke:#000000;stroke-opacity:1"
         d="m 32.588262,388.06853 h -8.20208 l 0.16537,-42.53177 8.96276,-0.13229 0.0331,-16.7349 v -0.3638 l 227.938538,0.16536 v 257.86953 l -228.269268,0.23151 -0.0331,-27.15286 -8.56589,-0.0661 -0.0992,-42.8625 8.53281,0.0331 0.19844,-42.82942 -8.43359,-0.13229 -0.13229,-42.79636 8.00364,0.0661 0.0992,-0.33073 z"
         id="path16"
         sodipodi:nodetypes="ccccccccccccccccccc" /></g><path
       style="font-size:7.05556px;line-height:0;font-family:'Comic Sans MS';-inkscape-font-specification:'Comic Sans MS';fill:#000000;stroke:#000000;stroke-width:0.05"
       d="m 44.583781,509.79984 q -0.006,-0.52362 0.90266,-1.50219 l 1.02508,-1.04192 -0.0482,5.6e-4 -1.80514,0.0177 q -0.34104,0.004 -0.34448,-0.29579 -0.002,-0.19636 0.16864,-0.31546 0.14013,-0.0981 0.30548,-0.10001 0.80611,-0.009 2.41196,0.0205 1.60587,0.0298 2.40853,0.0205 0.14813,-0.002 0.25258,0.0936 0.10449,0.0987 0.10615,0.2434 0.002,0.14813 -0.10053,0.24577 -0.1022,0.10108 -0.25033,0.10278 -0.33416,0.004 -1.04083,-0.0294 -0.68256,-0.0335 -1.04423,-0.0259 0.4428,0.4566 1.1109,1.03118 l 1.15849,0.97551 q 0.13568,0.11558 0.13735,0.26027 0.002,0.13779 -0.10054,0.24577 -0.10212,0.10798 -0.25025,0.10968 -0.22736,0.003 -1.2228,-0.87486 -0.67878,-0.60547 -1.33049,-1.2526 -0.4293,0.41836 -1.23217,1.30958 l -0.299,0.36519 q -0.14932,0.1981 -0.22249,0.42634 -0.0865,0.27317 -0.33793,0.27605 -0.11712,0.001 -0.22474,-0.0698 -0.13193,-0.0881 -0.13363,-0.23619 z m -0.0378,2.10897 q -0.007,-0.57874 0.41573,-1.00047 0.47005,-0.47051 1.27243,-0.50385 0.7783,-0.0296 1.37557,0.37698 0.70484,0.47426 0.71472,1.33547 0.008,0.68898 -0.61842,1.05104 -0.5066,0.28832 -1.22325,0.28622 -0.76489,-0.002 -1.3102,-0.38462 -0.61824,-0.4339 -0.62658,-1.16077 z m 3.07864,0.17138 q -0.003,-0.50643 -0.49135,-0.78334 -0.39183,-0.21945 -0.89134,-0.21371 -0.49951,0.006 -0.77541,0.28108 -0.2282,0.23001 -0.22468,0.5366 0.004,0.35827 0.26888,0.61363 0.29273,0.28949 0.78555,0.30106 1.33371,0.0329 1.32835,-0.73532 z m -0.27112,4.89547 q -0.43088,-0.0192 -0.43456,-0.33955 -0.003,-0.29625 0.33764,-0.30016 0.0655,-7.5e-4 0.24103,-0.0131 l 0.28925,-0.0136 q -0.0718,-0.54354 -0.31661,-0.86803 -0.22743,-0.30403 -0.68104,-0.5021 l -1.88771,0.0287 q -0.34794,0.004 -0.35185,-0.33704 -0.003,-0.30315 0.34446,-0.30715 l 2.4183,-0.0278 q 0.11368,-10e-4 0.34112,0.003 0.22748,0.008 0.34116,0.006 0.34793,-0.004 0.35141,0.29916 0.004,0.3376 -0.56793,0.34761 0.64489,0.6541 0.65414,1.4602 0.003,0.27903 -0.20535,0.41924 -0.20855,0.14021 -0.63227,0.14507 -0.17913,0.002 -0.24118,-2.3e-4 z m -2.77332,5.11714 q -0.003,-0.28248 0.29592,-0.33415 0.37822,-0.0664 1.06648,-0.13627 l 1.06657,-0.12939 q 0.2373,-0.0371 0.46371,-0.12246 0.30869,-0.12068 0.3071,-0.25848 -10e-4,-0.12747 -0.22248,-0.4729 -0.20359,-0.32842 -0.32535,-0.43038 -0.32385,7.2e-4 -0.64744,0.0246 l -0.91859,0.1139 q -0.54354,0.0717 -0.89836,0.0758 -0.15158,0.002 -0.24914,-0.0936 -0.10096,-0.0919 -0.10266,-0.24 -0.002,-0.14813 0.0971,-0.24573 0.0954,-0.0941 0.24697,-0.0958 0.41683,-0.005 1.22883,-0.10021 0.81549,-0.0921 1.23231,-0.0969 0.36515,-0.004 0.56722,-0.10987 -0.11301,-0.23988 -0.36388,-0.48506 l -0.45939,-0.40128 q -0.0833,-0.0542 -0.21905,-0.1732 -0.20668,0.002 -0.61017,-0.0309 -0.40349,-0.0333 -0.5964,-0.031 -0.10335,10e-4 -0.28901,0.0343 -0.18563,0.0365 -0.26831,0.0375 -0.14124,0.002 -0.23892,-0.10406 -0.0977,-0.10224 -0.0993,-0.24348 -0.004,-0.38928 0.88086,-0.39944 0.20669,-0.002 0.61707,0.0308 0.41038,0.0332 0.61706,0.0308 0.18258,-0.002 0.54734,-0.0408 0.3648,-0.0352 0.55083,-0.0373 0.78198,-0.009 0.78601,0.3424 0.002,0.13435 -0.11431,0.24593 -0.11582,0.11503 -0.25362,0.11661 -0.0654,7.5e-4 -0.20345,-0.0149 -0.13799,-0.0156 -0.21033,-0.0148 l -0.36163,0.0111 q 0.37066,0.17489 0.67091,0.51943 0.30369,0.34449 0.3065,0.58907 0.006,0.54085 -0.52885,0.75027 0.25365,0.18658 0.38067,0.44696 0.13046,0.26035 0.13434,0.59795 0.007,0.57529 -0.61106,0.79254 -0.12355,0.0427 -0.96639,0.15236 -0.59141,0.10329 -1.97107,0.27069 -0.13767,0.0119 -0.23531,-0.0903 -0.0977,-0.10223 -0.0994,-0.25036 z m 0.10277,3.84724 q -7.6e-4,-0.0655 0.14884,-0.23943 0.13946,-0.15664 0.24883,-0.23369 -0.18293,-0.32866 -0.27538,-0.5791 -0.0959,-0.25041 -0.0978,-0.41921 -0.009,-0.8061 0.44124,-1.17992 0.42317,-0.35284 1.30505,-0.36296 0.83366,-0.01 1.43275,0.55548 0.59912,0.56849 0.60825,1.36426 0.003,0.2997 -0.1473,0.67352 -0.18754,0.47073 -0.45969,0.47385 -0.093,10e-4 -0.16614,-0.067 -0.1313,-0.0329 -0.43124,-0.0502 -0.2999,-0.0138 -0.76845,-0.0119 -0.42719,0.002 -0.67452,0.0664 -0.15118,0.0361 -0.6038,0.22398 -0.0617,0.0248 -0.18167,0.0813 l -0.0584,0.0214 q -0.13779,0.002 -0.22847,-0.0939 -0.0907,-0.0955 -0.0922,-0.2229 z m 2.38595,-0.74401 q 0.14813,-0.002 0.32058,0.0135 0.17593,0.0187 0.37272,0.0543 0.0639,-0.12821 0.094,-0.22158 0.03,-0.09 0.0293,-0.14504 -0.006,-0.53395 -0.4481,-0.9182 -0.43848,-0.38085 -1.00688,-0.37432 -0.56497,0.006 -0.84515,0.20952 -0.28019,0.20305 -0.2756,0.60266 0.004,0.3307 0.12701,0.56013 0.0669,0.12327 0.26581,0.34493 0.91162,-0.12072 1.36634,-0.12594 z m 1.91655,-0.51813 q -10e-4,-0.12401 0.094,-0.22158 0.0954,-0.0941 0.2194,-0.0955 0.11713,-10e-4 0.22515,0.10421 0.14638,0.14647 0.55291,0.44499 0.29887,0.22397 0.49843,0.50074 0.0665,0.0923 0.0675,0.18183 0.001,0.12401 -0.0974,0.21817 -0.0954,0.0941 -0.21941,0.0955 -0.13779,0.002 -0.24265,-0.12814 -0.19567,-0.23893 -0.50484,-0.45932 -0.32651,-0.23054 -0.50461,-0.43866 -0.0872,-0.0955 -0.0884,-0.20226 z m -4.17347,4.99884 q -0.002,-0.18947 0.19643,-0.29511 0.34588,-0.18312 0.81712,-0.55029 l 0.82321,-0.61927 q -0.16075,-0.19799 -0.4515,-0.61498 -0.53439,-0.0318 -1.04079,-0.026 -0.15502,0.002 -0.25258,-0.0936 -0.0976,-0.0919 -0.0993,-0.24003 -0.004,-0.34794 0.4645,-0.35331 0.28592,-0.003 0.85477,0.0281 0.57232,0.0347 0.85824,0.0314 0.52362,-0.006 1.19553,8e-5 0.67539,0.009 1.19213,0.004 0.15502,-0.002 0.36496,-0.0214 0.20997,-0.0162 0.36499,-0.018 0.15502,-0.002 0.25254,0.0901 0.0976,0.0954 0.0993,0.24347 0.002,0.14813 -0.0937,0.24225 -0.0954,0.0976 -0.25037,0.0994 -0.15847,0.002 -0.37529,0.0215 -0.21338,0.0196 -0.37185,0.0215 l -1.10953,-0.0114 q -0.5996,-0.0103 -1.19892,0.003 0.36364,0.46439 0.79578,0.89354 l 0.79069,0.74889 q 0.11843,0.11234 0.11993,0.24325 0.002,0.13435 -0.10402,0.24236 -0.10553,0.11147 -0.24677,0.11309 -0.11712,10e-4 -0.23195,-0.0973 -0.50092,-0.41802 -1.07644,-1.03158 l -1.01452,0.76274 q -0.71392,0.53533 -0.93095,0.53782 -0.1378,0.002 -0.23895,-0.10752 -0.10112,-0.10564 -0.10275,-0.24688 z m 2.1961,3.72676 q -0.24803,0.003 -0.74406,0.0115 -0.49602,0.009 -0.74406,0.0115 -0.0758,8.7e-4 -0.23068,0.013 -0.15487,0.0156 -0.23065,0.0164 -0.14813,0.002 -0.24229,-0.0971 -0.0976,-0.0988 -0.0993,-0.24348 -0.003,-0.26525 0.32338,-0.34135 -0.22886,-0.42803 -0.2353,-0.98956 -0.005,-0.45127 0.19122,-0.74982 0.21671,-0.3298 0.63972,-0.39667 0.91135,-0.14483 1.62444,-0.15301 0.47195,-0.005 1.07599,0.091 0.30025,0.0448 0.30346,0.32382 0.002,0.14813 -0.0936,0.24914 -0.0919,0.10096 -0.24,0.10266 -0.15846,0.002 -0.50699,-0.0459 -0.34848,-0.0442 -0.53106,-0.0421 -0.57529,0.007 -0.9848,0.0492 -0.4095,0.0426 -0.65666,0.12123 -0.0607,0.1144 -0.0939,0.22503 -0.0297,0.11059 -0.0285,0.21738 0.005,0.46162 0.15932,0.9732 l 0.69927,-0.011 0.66823,-0.0147 q 0.74409,-0.009 1.29257,0.0507 0.31737,0.0343 0.32077,0.33051 0.002,0.14813 -0.0936,0.24914 -0.0953,0.101 -0.24007,0.0958 z m 0.57456,3.53174 q -0.43088,-0.0191 -0.43455,-0.33954 -0.003,-0.29626 0.33763,-0.30018 0.0655,-7.5e-4 0.24103,-0.0131 l 0.28925,-0.0136 q -0.0717,-0.54353 -0.3166,-0.86803 -0.22744,-0.30402 -0.68105,-0.50208 l -1.88771,0.0287 q -0.34793,0.004 -0.35185,-0.33705 -0.003,-0.30314 0.34446,-0.30713 l 2.4183,-0.0278 q 0.11368,-0.001 0.34112,0.003 0.22748,0.008 0.34116,0.006 0.34793,-0.004 0.35141,0.29915 0.004,0.3376 -0.56793,0.34761 0.64489,0.6541 0.65415,1.4602 0.003,0.27903 -0.20536,0.41924 -0.20855,0.14021 -0.63227,0.14507 -0.17913,0.002 -0.24118,-2.3e-4 z m -2.34608,5.41887 q -0.31204,-0.77162 -0.32588,-1.97732 -0.002,-0.14813 0.138,-0.2841 0.13628,-0.13249 0.28441,-0.13419 l 1.00247,-0.0115 q 0.49262,-0.006 1.40622,0.0459 0.98602,0.0576 1.42704,0.0594 0.3169,-0.007 0.94433,0.0271 0.17252,0.0221 0.22867,0.11108 0.15005,0.46684 0.1569,1.0628 0.007,0.6063 -0.40002,1.1691 -0.468,0.64966 -1.16731,0.65769 -0.88533,0.0102 -1.40308,-0.67296 -0.21454,0.51925 -0.48031,0.77726 -0.26573,0.26145 -0.58266,0.26509 -0.41683,0.005 -0.81128,-0.44203 -0.27919,-0.31032 -0.4175,-0.65326 z m 4.55941,-1.09283 q -0.004,-0.37548 -0.0301,-0.52679 l -0.60293,-8e-5 -1.33396,-0.0536 q -0.0357,0.48964 -0.0319,0.52405 0.0473,0.5197 0.33359,0.84717 0.31066,0.35131 0.79294,0.34577 0.32727,-0.004 0.60215,-0.36867 0.27489,-0.36491 0.27026,-0.76797 z m -2.75492,0.4175 0.0544,-0.36583 q -5.2e-4,-0.0448 -0.009,-0.13771 -0.004,-0.0896 -0.005,-0.13776 -0.002,-0.18602 0.0265,-0.39651 -0.43428,-0.0157 -0.77533,-0.0118 l -0.71308,0.008 q 0.0414,0.90219 0.27179,1.46803 0.0958,0.24007 0.29467,0.4583 0.18155,0.20808 0.27112,0.20705 0.16191,-0.002 0.36009,-0.44514 0.15123,-0.33248 0.22341,-0.64684 z m 0.65575,5.20181 q -0.43088,-0.0192 -0.43455,-0.33955 -0.003,-0.29626 0.33763,-0.30017 0.0655,-7.5e-4 0.24103,-0.0131 l 0.28925,-0.0136 q -0.0717,-0.54354 -0.3166,-0.86803 -0.22744,-0.30402 -0.68105,-0.50209 l -1.88771,0.0287 q -0.34793,0.004 -0.35185,-0.33705 -0.003,-0.30315 0.34446,-0.30715 l 2.4183,-0.0278 q 0.11368,-10e-4 0.34112,0.003 0.22748,0.008 0.34116,0.006 0.34793,-0.004 0.35141,0.29916 0.004,0.3376 -0.56793,0.3476 0.64489,0.6541 0.65415,1.4602 0.003,0.27904 -0.20535,0.41924 -0.20856,0.14021 -0.63228,0.14507 -0.17913,0.002 -0.24118,-2.3e-4 z m -2.67761,2.34944 q -0.009,-0.77854 0.3748,-1.2653 0.42457,-0.53201 1.19965,-0.5409 0.89568,-0.0103 1.50695,0.41682 0.66683,0.46435 0.67589,1.25322 0.007,0.57185 -0.18219,0.93577 -0.2326,0.44712 -0.72521,0.45278 -0.34449,0.004 -0.63144,-0.38207 -0.12599,-0.17083 -0.39421,-0.72589 l -0.63862,-1.30878 q -0.28372,0.19619 -0.42512,0.48378 -0.14137,0.29102 -0.13698,0.67341 0.003,0.23769 0.096,0.55704 0.11835,0.40519 0.30227,0.52022 0.18736,0.11499 0.18891,0.24934 10e-4,0.12057 -0.0905,0.21465 -0.0885,0.0975 -0.20903,0.0989 -0.38238,0.004 -0.66505,-0.60908 -0.2403,-0.52438 -0.24604,-1.02388 z m 3.13722,-0.12902 q -0.005,-0.42027 -0.3353,-0.69555 -0.32702,-0.27532 -0.98313,-0.4056 l 0.5151,1.05181 q 0.31031,0.62003 0.53727,0.88272 0.27219,-0.29943 0.26606,-0.83338 z m -3.06115,5.2548 q -0.002,-0.18947 0.19644,-0.2951 0.34588,-0.18313 0.81712,-0.5503 l 0.82321,-0.61927 q -0.16075,-0.19799 -0.45151,-0.61498 -0.53439,-0.0318 -1.04078,-0.026 -0.15502,0.002 -0.25258,-0.0936 -0.0976,-0.0919 -0.0993,-0.24003 -0.004,-0.34793 0.46451,-0.35331 0.28592,-0.003 0.85477,0.0281 0.57231,0.0347 0.85824,0.0315 0.52362,-0.006 1.19552,8e-5 0.6754,0.009 1.19213,0.004 0.15502,-0.002 0.36496,-0.0214 0.20998,-0.0162 0.365,-0.018 0.15502,-0.002 0.25254,0.0901 0.0976,0.0954 0.0993,0.24348 0.002,0.14813 -0.0937,0.24224 -0.0954,0.0976 -0.25037,0.0994 -0.15847,0.002 -0.3753,0.0215 -0.21338,0.0196 -0.37185,0.0215 l -1.10952,-0.0114 q -0.59961,-0.0103 -1.19893,0.003 0.36365,0.46438 0.79579,0.89353 l 0.79069,0.74889 q 0.11843,0.11234 0.11993,0.24325 0.002,0.13434 -0.10403,0.24236 -0.10552,0.11147 -0.24677,0.11309 -0.11712,10e-4 -0.23195,-0.0972 -0.50092,-0.41803 -1.07644,-1.03158 l -1.01451,0.76272 q -0.71392,0.53533 -0.93095,0.53782 -0.1378,0.002 -0.23896,-0.1075 -0.10112,-0.10565 -0.10274,-0.24689 z m 4.52079,1.54674 q -0.002,-0.16535 0.11384,-0.28726 0.11575,-0.12192 0.2811,-0.12382 0.16536,-0.002 0.28387,0.11733 0.1185,0.11923 0.1204,0.28458 0.002,0.16536 -0.11388,0.28382 -0.11574,0.12192 -0.2811,0.12382 -0.16535,0.002 -0.28386,-0.11733 -0.11847,-0.11578 -0.12037,-0.28114 z m -2.79545,0.18713 q -0.2067,0.002 -0.61996,0.0174 -0.40978,0.0185 -0.61647,0.0209 -0.15157,0.002 -0.24911,-0.0901 -0.0976,-0.0919 -0.0993,-0.24348 -0.002,-0.14813 0.0937,-0.2457 0.0954,-0.0941 0.24697,-0.0958 0.20669,-0.002 0.61647,-0.0209 0.41326,-0.015 0.61996,-0.0174 0.32382,-0.004 0.80649,0.0252 0.48612,0.0288 0.80994,0.0251 0.15502,-0.002 0.25254,0.0901 0.0976,0.0954 0.0993,0.24348 0.002,0.14813 -0.0937,0.24225 -0.0954,0.0976 -0.25037,0.0994 -0.32382,0.004 -0.80994,-0.0251 -0.48267,-0.0289 -0.80649,-0.0251 z m 0.60365,7.26615 q -1.06002,-0.20144 -1.70175,-0.87969 -0.63825,-0.67485 -0.64893,-1.60497 -0.01,-0.84744 0.45736,-1.27657 0.47054,-0.42917 1.41787,-0.44005 0.89223,-0.0102 1.84095,0.3992 0.9522,0.41284 1.54197,1.06757 0.39433,0.43648 0.39998,0.9291 0.004,0.31348 -0.19719,0.82914 -0.24084,0.62981 -0.54054,0.63325 -0.14124,0.002 -0.25266,-0.10046 -0.11143,-0.10208 -0.11309,-0.24676 -8.7e-4,-0.0758 0.0836,-0.21458 0.31432,-0.53074 0.31017,-0.89244 -0.003,-0.25838 -0.2749,-0.53777 -0.13597,-0.13969 -0.49384,-0.40088 -1.06327,-0.78366 -2.29653,-0.7695 -0.64764,0.007 -0.9037,0.21019 -0.28,0.22027 -0.27331,0.80245 0.007,0.61664 0.40157,1.06689 0.41888,0.4741 1.18925,0.65475 -0.0592,-0.95368 -0.38738,-1.63208 -0.0388,-0.0788 -0.0397,-0.15459 -0.002,-0.15158 0.11424,-0.25282 0.10572,-0.0942 0.24696,-0.0958 0.18947,-0.002 0.30525,0.1791 0.46326,0.73887 0.48418,2.56121 0.002,0.14812 -0.097,0.24917 -0.0987,0.10104 -0.25034,0.10278 -0.22391,0.003 -0.32254,-0.18579 z m -0.0309,3.60761 q -0.24802,0.003 -0.74405,0.0115 -0.49602,0.009 -0.74406,0.0115 -0.0758,8.7e-4 -0.23069,0.0129 -0.15486,0.0156 -0.23064,0.0164 -0.14813,0.002 -0.24229,-0.0971 -0.0976,-0.0988 -0.0993,-0.24348 -0.003,-0.26526 0.32338,-0.34135 -0.22886,-0.42804 -0.2353,-0.98956 -0.005,-0.45128 0.19122,-0.74983 0.21671,-0.32979 0.63972,-0.39666 0.91135,-0.14483 1.62444,-0.15302 0.47195,-0.005 1.07599,0.091 0.30025,0.0448 0.30345,0.32382 0.002,0.14813 -0.0936,0.24914 -0.0919,0.10096 -0.24,0.10266 -0.15846,0.002 -0.50699,-0.0459 -0.34848,-0.0442 -0.53106,-0.0421 -0.57529,0.007 -0.9848,0.0492 -0.40951,0.0426 -0.65666,0.12123 -0.0607,0.11439 -0.0939,0.22502 -0.0297,0.11059 -0.0285,0.21739 0.005,0.46161 0.15932,0.97319 l 0.69927,-0.011 0.66823,-0.0147 q 0.74409,-0.009 1.29257,0.0506 0.31737,0.0343 0.32077,0.33052 0.002,0.14813 -0.0937,0.24913 -0.0953,0.101 -0.24008,0.0958 z m -2.21621,3.52589 q -0.003,-0.29626 0.31998,-0.33787 l 0.75332,-0.10515 q 0.4025,-0.0528 0.75388,-0.0569 0.0965,-10e-4 0.32738,0.007 0.23096,0.0111 0.32743,0.01 0.74409,-0.009 0.74092,-0.28413 -0.004,-0.38582 -0.46663,-0.73194 -0.42047,-0.31215 -1.05982,-0.48397 -0.13444,-0.005 -0.33796,-0.0271 -0.17248,-0.0187 -0.33439,-0.0169 -0.10335,0.001 -0.3098,0.0242 -0.20645,0.0231 -0.3098,0.0243 -0.15502,0.002 -0.25259,-0.0936 -0.0976,-0.0919 -0.0993,-0.24003 -0.002,-0.15158 0.0937,-0.24569 0.0954,-0.0941 0.25041,-0.0959 0.10335,-10e-4 0.30976,-0.0276 0.20645,-0.0231 0.3098,-0.0243 0.35482,-0.004 0.98235,0.0369 0.631,0.0445 0.98582,0.0404 0.11024,-10e-4 0.3271,-0.0176 0.21691,-0.0128 0.32714,-0.0141 0.14813,-0.002 0.24226,0.0937 0.0976,0.0988 0.0993,0.24347 0.004,0.31693 -0.44384,0.35307 l -0.40293,0.0149 q 0.7783,0.56988 0.7853,1.17962 0.006,0.55118 -0.47691,0.77379 -0.32212,0.15183 -0.95582,0.17289 l -0.34793,0.004 -0.32041,6.8e-4 q -0.28592,0.003 -0.73981,0.0808 -0.45041,0.081 -0.7329,0.0842 -0.15158,0.002 -0.24573,-0.0971 -0.0976,-0.0954 -0.0993,-0.24348 z m 0.0424,3.6929 q -0.003,-0.29625 0.31998,-0.33786 l 0.75332,-0.10516 q 0.4025,-0.0528 0.75388,-0.0569 0.0965,-10e-4 0.32738,0.007 0.23096,0.0111 0.32743,0.01 0.74409,-0.009 0.74092,-0.28413 -0.004,-0.38583 -0.46663,-0.73195 -0.42047,-0.31214 -1.05982,-0.48395 -0.13444,-0.005 -0.33796,-0.0271 -0.17248,-0.0187 -0.33439,-0.0169 -0.10335,0.001 -0.3098,0.0243 -0.20645,0.0231 -0.3098,0.0243 -0.15502,0.002 -0.25259,-0.0936 -0.0976,-0.0919 -0.0993,-0.24004 -0.002,-0.15157 0.0937,-0.24569 0.0954,-0.0941 0.25041,-0.0959 0.10335,-10e-4 0.30977,-0.0277 0.20644,-0.0231 0.30979,-0.0243 0.35482,-0.004 0.98235,0.0369 0.631,0.0445 0.98582,0.0404 0.11024,-10e-4 0.3271,-0.0175 0.21691,-0.0128 0.32714,-0.0141 0.14813,-0.002 0.24226,0.0937 0.0976,0.0988 0.0993,0.24348 0.004,0.31692 -0.44384,0.35307 l -0.40293,0.0149 q 0.7783,0.56988 0.7853,1.17962 0.006,0.55118 -0.47691,0.77378 -0.32212,0.15185 -0.95582,0.17291 l -0.34793,0.004 -0.32041,6.8e-4 q -0.28592,0.003 -0.73981,0.0808 -0.45041,0.081 -0.73289,0.0842 -0.15158,0.002 -0.24574,-0.0971 -0.0976,-0.0954 -0.0993,-0.24349 z m 0.0601,3.74094 q -7.5e-4,-0.0654 0.14884,-0.23944 0.13946,-0.15664 0.24884,-0.23369 -0.18294,-0.32865 -0.27539,-0.5791 -0.0959,-0.25041 -0.0978,-0.4192 -0.009,-0.80611 0.44124,-1.17992 0.42318,-0.35284 1.30506,-0.36297 0.83365,-0.01 1.43274,0.55548 0.59912,0.5685 0.60826,1.36426 0.003,0.2997 -0.14731,0.67353 -0.18754,0.47071 -0.45968,0.47384 -0.093,10e-4 -0.16614,-0.067 -0.13131,-0.033 -0.43125,-0.0502 -0.29989,-0.0138 -0.76844,-0.0119 -0.4272,0.002 -0.67453,0.0664 -0.15117,0.0361 -0.60379,0.22399 -0.0617,0.0248 -0.18167,0.0813 l -0.0584,0.0214 q -0.13779,0.002 -0.22847,-0.0939 -0.0907,-0.0955 -0.0922,-0.22288 z m 2.38596,-0.74402 q 0.14813,-0.002 0.32058,0.0135 0.17592,0.0187 0.37271,0.0543 0.0639,-0.1282 0.094,-0.22158 0.03,-0.0899 0.0293,-0.14504 -0.006,-0.53396 -0.4481,-0.9182 -0.43848,-0.38084 -1.00688,-0.37432 -0.56496,0.006 -0.84515,0.20953 -0.28019,0.20305 -0.2756,0.60265 0.004,0.33071 0.12702,0.56013 0.0669,0.12326 0.2658,0.34492 0.91163,-0.12071 1.36635,-0.12593 z m 0.42848,4.31207 q -0.43088,-0.0192 -0.43455,-0.33954 -0.003,-0.29626 0.33763,-0.30017 0.0655,-7.5e-4 0.24103,-0.0131 l 0.28925,-0.0136 q -0.0717,-0.54354 -0.3166,-0.86803 -0.22744,-0.30403 -0.68105,-0.5021 l -1.88771,0.0287 q -0.34793,0.004 -0.35185,-0.33704 -0.003,-0.30315 0.34446,-0.30715 l 2.4183,-0.0278 q 0.11368,-10e-4 0.34112,0.003 0.22748,0.008 0.34116,0.006 0.34793,-0.004 0.35141,0.29916 0.004,0.3376 -0.56793,0.34761 0.64489,0.6541 0.65415,1.4602 0.003,0.27903 -0.20536,0.41924 -0.20855,0.14021 -0.63227,0.14507 -0.17913,0.002 -0.24118,-2.3e-4 z m 0.14163,3.03371 q -0.002,-0.18947 0.12442,-0.26672 0.089,-0.0527 0.37102,-0.0939 -0.0685,-0.25761 -0.25028,-0.793 -0.22683,-0.55209 -0.55069,-0.55181 -0.0367,0.10377 -0.0528,0.20388 -0.13214,0.79393 -0.37575,1.18261 -0.35526,0.56566 -1.04079,0.57353 -0.56152,0.006 -0.85301,-0.476 -0.23888,-0.40035 -0.24596,-1.01698 -0.005,-0.45128 0.14168,-0.86297 0.18683,-0.53272 0.53132,-0.53667 0.13779,-0.002 0.24237,0.10401 0.10461,0.10906 0.10619,0.24685 10e-4,0.10679 -0.16219,0.27749 -0.0782,0.0836 -0.12664,0.37355 -0.0387,0.23128 -0.0368,0.38975 0.003,0.28936 0.0747,0.50904 0.10357,0.31923 0.32061,0.31673 0.4685,-0.005 0.62634,-0.66179 l 0.0751,-0.35917 q 0.0946,-0.45932 0.22678,-0.65378 0.18971,-0.28125 0.57897,-0.28571 0.71999,-0.008 1.03437,0.66685 0.0954,0.20563 0.22806,0.65888 0.13613,0.45322 0.22795,0.64856 0.0636,0.14052 0.0655,0.30588 0.002,0.14813 -0.0937,0.24225 -0.0954,0.0976 -0.25037,0.0994 -0.0999,0.001 -0.29234,0.0447 -0.1924,0.047 -0.2923,0.0482 -0.15502,0.002 -0.25259,-0.0936 -0.0976,-0.0919 -0.0993,-0.24003 z m 0.0394,3.43454 q -0.002,-0.18947 0.12441,-0.26673 0.089,-0.0527 0.37102,-0.0939 -0.0685,-0.25761 -0.25028,-0.79299 -0.22683,-0.5521 -0.55069,-0.55182 -0.0367,0.10378 -0.0528,0.20388 -0.13215,0.79394 -0.37575,1.18261 -0.35526,0.56566 -1.0408,0.57353 -0.56151,0.006 -0.85301,-0.47599 -0.23888,-0.40036 -0.24596,-1.01699 -0.005,-0.45128 0.14169,-0.86296 0.18682,-0.53272 0.53131,-0.53668 0.13779,-0.002 0.24237,0.10402 0.10461,0.10905 0.10619,0.24684 10e-4,0.1068 -0.16218,0.27749 -0.0783,0.0836 -0.12664,0.37355 -0.0386,0.23128 -0.0368,0.38975 0.003,0.28936 0.0747,0.50905 0.10358,0.31922 0.32061,0.31673 0.4685,-0.005 0.62635,-0.6618 l 0.0751,-0.35917 q 0.0946,-0.45932 0.22677,-0.65378 0.18971,-0.28124 0.57898,-0.28571 0.71998,-0.008 1.03436,0.66685 0.0954,0.20563 0.22807,0.65889 0.13612,0.45322 0.22795,0.64855 0.0636,0.14053 0.0655,0.30588 0.002,0.14813 -0.0937,0.24225 -0.0954,0.0976 -0.25038,0.0994 -0.0999,0.001 -0.29234,0.0447 -0.1924,0.047 -0.29229,0.0482 -0.15502,0.002 -0.25259,-0.0936 -0.0976,-0.0919 -0.0993,-0.24002 z m -2.82823,2.43385 q -0.007,-0.57874 0.41573,-1.00047 0.47005,-0.47052 1.27243,-0.50385 0.7783,-0.0296 1.37557,0.37698 0.70484,0.47426 0.71472,1.33547 0.008,0.68898 -0.61842,1.05104 -0.5066,0.28832 -1.22325,0.28622 -0.76489,-0.002 -1.3102,-0.38462 -0.61824,-0.43391 -0.62658,-1.16077 z m 3.07864,0.17138 q -0.003,-0.50643 -0.49135,-0.78334 -0.39183,-0.21945 -0.89134,-0.21371 -0.49951,0.006 -0.77541,0.28108 -0.2282,0.23001 -0.22468,0.5366 0.004,0.35827 0.26888,0.61362 0.29273,0.28949 0.78555,0.30107 1.33371,0.0329 1.32835,-0.73532 z m -3.0619,4.88961 q -0.003,-0.29626 0.31998,-0.33787 l 0.75332,-0.10515 q 0.4025,-0.0528 0.75388,-0.0569 0.0965,-10e-4 0.32738,0.007 0.23096,0.0112 0.32742,0.01 0.74409,-0.009 0.74093,-0.28413 -0.004,-0.38583 -0.46663,-0.73195 -0.42047,-0.31214 -1.05983,-0.48396 -0.13443,-0.005 -0.33795,-0.0271 -0.17249,-0.0187 -0.33439,-0.0169 -0.10335,10e-4 -0.3098,0.0243 -0.20646,0.0231 -0.3098,0.0243 -0.15502,0.002 -0.25259,-0.0936 -0.0976,-0.0919 -0.0993,-0.24004 -0.002,-0.15157 0.0937,-0.24569 0.0954,-0.0941 0.25042,-0.0959 0.10334,-10e-4 0.30976,-0.0277 0.20645,-0.0231 0.3098,-0.0242 0.35482,-0.004 0.98234,0.0369 0.63101,0.0445 0.98583,0.0404 0.11024,-10e-4 0.3271,-0.0176 0.21691,-0.0128 0.32714,-0.014 0.14813,-0.002 0.24225,0.0937 0.0976,0.0988 0.0993,0.24348 0.004,0.31693 -0.44384,0.35308 l -0.40294,0.0149 q 0.77831,0.56989 0.78531,1.17963 0.006,0.55118 -0.47691,0.77378 -0.32212,0.15185 -0.95582,0.17291 l -0.34793,0.004 -0.32041,6.8e-4 q -0.28592,0.003 -0.73981,0.0809 -0.45041,0.081 -0.7329,0.0842 -0.15158,0.002 -0.24573,-0.0971 -0.0976,-0.0954 -0.0993,-0.24348 z"
       id="text18"
       aria-label="Kormákur Breki Gunnarsson" /><path
       style="font-size:7.05556px;line-height:0;font-family:'Comic Sans MS';-inkscape-font-specification:'Comic Sans MS';fill:#000000;stroke:#000000;stroke-width:0.05"
       d="m 29.321398,529.10184 q 0.006,-0.52361 0.93813,-1.48029 l 1.04959,-1.01724 -0.0482,-5.9e-4 -1.80506,-0.0252 q -0.34103,-0.004 -0.33734,-0.30391 0.002,-0.19635 0.1761,-0.31135 0.14242,-0.0947 0.30778,-0.0927 0.80609,0.01 2.41079,0.0779 1.6047,0.068 2.40735,0.0778 0.14813,0.002 0.25028,0.0996 0.10211,0.10117 0.10033,0.24585 -0.002,0.14813 -0.10635,0.24332 -0.10457,0.0986 -0.2527,0.0968 -0.33416,-0.004 -1.03983,-0.0541 -0.68157,-0.0497 -1.04333,-0.0507 0.43181,0.46699 1.08606,1.05731 l 1.13496,1.00279 q 0.1329,0.11878 0.13112,0.26346 -0.002,0.1378 -0.10636,0.24331 -0.10466,0.10552 -0.25279,0.10369 -0.22735,-0.003 -1.20163,-0.90369 -0.6642,-0.62145 -1.30032,-1.2839 -0.43914,0.40803 -1.26299,1.2799 l -0.30759,0.35797 q -0.15399,0.19449 -0.23258,0.42092 -0.0929,0.27104 -0.34439,0.26794 -0.11712,-10e-4 -0.22302,-0.0752 -0.1298,-0.0912 -0.12798,-0.2393 z m 2.64392,3.52959 q -0.43031,-0.0294 -0.42636,-0.34978 0.004,-0.29626 0.34468,-0.29206 0.0655,8.1e-4 0.24127,-0.007 l 0.28949,-0.007 q -0.0588,-0.54509 -0.29586,-0.87531 -0.22014,-0.30935 -0.66891,-0.51816 l -1.88786,-0.0162 q -0.34792,-0.004 -0.34372,-0.34532 0.004,-0.30315 0.35165,-0.29886 l 2.41828,0.0298 q 0.11368,10e-4 0.34096,0.0112 0.22722,0.0131 0.3409,0.0145 0.34793,0.004 0.3442,0.30743 -0.004,0.33759 -0.57604,0.33399 0.62915,0.66926 0.61922,1.47535 -0.003,0.27903 -0.21526,0.41424 -0.21183,0.1352 -0.63555,0.12998 -0.17913,-0.002 -0.2411,-0.006 z m 1.79859,1.38995 q 0.002,-0.16534 0.12065,-0.28447 0.1186,-0.11913 0.28395,-0.1171 0.16536,0.002 0.28099,0.12405 0.11565,0.12202 0.11362,0.28736 -0.002,0.16536 -0.12061,0.28104 -0.11861,0.11913 -0.28397,0.11709 -0.16534,-0.002 -0.28098,-0.12405 -0.11569,-0.11856 -0.11365,-0.28392 z m -2.79912,0.12058 q -0.20668,-0.003 -0.62019,0.003 -0.41011,0.009 -0.6168,0.006 -0.15157,-0.002 -0.24688,-0.096 -0.0953,-0.0942 -0.0935,-0.24577 0.002,-0.14813 0.0995,-0.2434 0.0976,-0.0918 0.24917,-0.0899 0.20669,0.003 0.6168,-0.006 0.41351,-0.005 0.62019,-0.003 0.32382,0.004 0.80568,0.0444 0.48529,0.0404 0.8091,0.0444 0.15502,0.002 0.25034,0.0961 0.0953,0.0977 0.0935,0.24577 -0.002,0.14813 -0.0995,0.23995 -0.0977,0.0953 -0.25267,0.0934 -0.32382,-0.004 -0.80911,-0.0444 -0.48186,-0.0403 -0.80567,-0.0443 z m 1.0456,3.50302 q 0.002,-0.18947 0.13073,-0.26368 0.0902,-0.0506 0.37314,-0.085 -0.0622,-0.25917 -0.23133,-0.79873 -0.21365,-0.55733 -0.53742,-0.56476 -0.0392,0.10287 -0.0576,0.20257 -0.15099,0.79057 -0.40377,1.17333 -0.36862,0.55706 -1.05415,0.54862 -0.56151,-0.007 -0.84144,-0.49616 -0.22929,-0.40592 -0.2217,-1.02256 0.006,-0.45126 0.16218,-0.85934 0.19944,-0.52813 0.54392,-0.52389 0.1378,0.002 0.23983,0.10976 0.10198,0.11152 0.10029,0.24931 -0.001,0.10679 -0.16874,0.27355 -0.0802,0.0817 -0.13549,0.37043 -0.0441,0.23029 -0.0461,0.38875 -0.004,0.28937 0.0626,0.51069 0.096,0.3216 0.31299,0.32427 0.4685,0.006 0.64191,-0.64672 l 0.0836,-0.35729 q 0.10553,-0.45692 0.24227,-0.64818 0.19634,-0.27666 0.58561,-0.27186 0.71997,0.009 1.01821,0.69127 0.0905,0.20783 0.21232,0.66412 0.12531,0.45633 0.21245,0.65378 0.0603,0.14201 0.0582,0.30736 -0.002,0.14813 -0.0995,0.23995 -0.0977,0.0953 -0.25266,0.0934 -0.0999,-10e-4 -0.29332,0.0377 -0.19346,0.0424 -0.29336,0.0412 -0.15502,-0.002 -0.25028,-0.0996 -0.0953,-0.0942 -0.0935,-0.24233 z m 0.24045,3.41732 q 8.9e-4,-0.0724 0.009,-0.17216 0.008,-0.0964 0.009,-0.16871 9.8e-4,-0.0792 -0.0459,-0.46913 l -2.03672,0.0404 -0.1516,10e-4 -0.17572,8.3e-4 q -0.7546,0.005 -0.74997,-0.371 0.002,-0.13779 0.0926,-0.24004 0.0908,-0.0988 0.22514,-0.0971 0.1309,0.002 0.39259,0.0151 0.26167,0.0135 0.39258,0.0151 l 2.01263,-0.0441 q 0.0134,-0.25134 0.068,-0.76403 0.0451,-0.30608 0.34481,-0.30238 0.15157,0.002 0.25033,0.0961 0.0987,0.0942 0.097,0.23893 l -0.0675,0.72269 q 0.17569,0.002 0.46871,-0.0114 0.29643,-0.0101 0.42734,-0.009 0.14468,0.002 0.23646,0.10282 0.0953,0.10108 0.0935,0.24577 -0.004,0.31004 -0.51084,0.35548 -0.12759,0.009 -0.30672,0.007 l -0.19972,-0.009 -0.21353,-0.006 q 0.0498,0.42784 0.0491,0.48984 -0.004,0.35827 -0.0402,0.46808 -0.0715,0.20929 -0.3264,0.20615 -0.15158,-0.002 -0.25029,-0.0996 -0.0953,-0.0942 -0.0935,-0.24232 z m 1.39625,2.16709 q 0.002,-0.16535 0.12064,-0.28448 0.11857,-0.11568 0.28047,-0.11369 0.16536,0.002 0.28104,0.1206 0.11564,0.12201 0.1136,0.28737 -0.002,0.16535 -0.12064,0.28448 -0.11861,0.11913 -0.28396,0.11709 -0.16191,-0.002 -0.27755,-0.12401 -0.11563,-0.12201 -0.1136,-0.28736 z m -5.15658,-0.0911 q 0.40301,0.008 2.0649,-0.0917 l 1.89955,-0.0937 q 0.17223,0.002 0.3054,0.10026 0.13312,0.10155 0.13125,0.25314 -10e-4,0.11712 -0.089,0.23318 -0.0875,0.11607 -0.17721,0.12186 l -1.98562,0.0892 -2.12317,0.0669 q -0.47883,-0.006 -0.86458,-0.2966 -0.41989,-0.31526 -0.41442,-0.75964 0.009,-0.74064 1.1555,-1.2261 0.0935,-0.0402 0.16587,-0.0393 0.13779,0.002 0.23638,0.10971 0.0985,0.11147 0.0968,0.24926 -0.003,0.20324 -0.45306,0.4182 -0.1178,0.0537 -0.33997,0.18875 -0.17389,0.13223 -0.17605,0.30792 -0.002,0.15158 0.22418,0.26116 0.17122,0.0848 0.34321,0.10759 z m 0.51662,4.49221 q 8e-4,-0.0654 0.1545,-0.23582 0.14315,-0.15328 0.25431,-0.22771 -0.17506,-0.33291 -0.26153,-0.58548 -0.0899,-0.25262 -0.0878,-0.42142 0.01,-0.8061 0.46919,-1.16909 0.43144,-0.34267 1.31332,-0.33182 0.83365,0.0103 1.41912,0.58941 0.58543,0.58258 0.57563,1.37834 -0.004,0.2997 -0.16329,0.66983 -0.19867,0.46613 -0.47082,0.46278 -0.093,-10e-4 -0.1645,-0.0709 -0.13049,-0.036 -0.42993,-0.0604 -0.29948,-0.0209 -0.76795,-0.0301 -0.42712,-0.008 -0.6759,0.0503 -0.152,0.0325 -0.60896,0.20956 -0.0623,0.0233 -0.18355,0.0769 l -0.0589,0.02 q -0.13779,-0.002 -0.22618,-0.0993 -0.0884,-0.0976 -0.0868,-0.22502 z m 2.40299,-0.68705 q 0.14812,0.002 0.32015,0.0212 0.17543,0.0229 0.37132,0.0632 0.0671,-0.12664 0.0992,-0.21927 0.0321,-0.0892 0.0328,-0.14431 0.007,-0.53395 -0.42613,-0.9286 -0.4293,-0.39116 -0.9977,-0.39816 -0.56495,-0.007 -0.84989,0.18936 -0.28493,0.19633 -0.28985,0.59593 -0.004,0.3307 0.11365,0.56299 0.064,0.12482 0.25752,0.35116 0.91424,-0.099 1.36897,-0.0934 z m 1.92832,-0.47238 q 0.002,-0.12401 0.0992,-0.21929 0.0976,-0.0918 0.22161,-0.0903 0.11712,10e-4 0.2226,0.10954 0.14286,0.14991 0.54217,0.45802 0.29346,0.23101 0.48638,0.51246 0.0644,0.0938 0.0633,0.18338 -0.002,0.12401 -0.10257,0.2158 -0.0976,0.0918 -0.22161,0.0903 -0.13779,-0.002 -0.23952,-0.13387 -0.18995,-0.24352 -0.49378,-0.47121 -0.32093,-0.23824 -0.49403,-0.45053 -0.0849,-0.0976 -0.0836,-0.20431 z m -4.39175,4.66951 q 0.004,-0.29625 0.32793,-0.33016 l 0.7556,-0.0872 q 0.40364,-0.0432 0.75501,-0.0389 0.0965,0.001 0.32713,0.0143 0.23063,0.0166 0.3271,0.0178 0.74408,0.009 0.74747,-0.26643 0.005,-0.38582 -0.44909,-0.74283 -0.41292,-0.32206 -1.04801,-0.50904 -0.13426,-0.009 -0.33721,-0.0352 -0.17198,-0.0228 -0.33389,-0.0248 -0.10335,-10e-4 -0.31029,0.0169 -0.20695,0.0181 -0.31029,0.0169 -0.15502,-0.002 -0.25029,-0.0996 -0.0953,-0.0942 -0.0935,-0.24233 0.002,-0.15157 0.0995,-0.24339 0.0976,-0.0918 0.25262,-0.0899 0.10334,10e-4 0.31033,-0.0203 0.20694,-0.0181 0.3103,-0.0169 0.35481,0.004 0.98118,0.0603 0.62976,0.0594 0.98459,0.0638 0.11023,10e-4 0.32742,-0.01 0.21715,-0.008 0.32739,-0.006 0.14813,0.002 0.23995,0.0995 0.0953,0.10108 0.0935,0.24576 -0.004,0.31693 -0.45212,0.34241 l -0.40317,0.005 q 0.76452,0.58824 0.75701,1.19797 -0.007,0.55117 -0.49518,0.76222 -0.32564,0.14414 -0.95966,0.15012 l -0.34793,-0.004 -0.32033,-0.007 q -0.28592,-0.004 -0.74153,0.0633 -0.45221,0.0702 -0.73469,0.0668 -0.15157,-0.002 -0.24335,-0.10291 -0.0953,-0.0977 -0.0935,-0.24577 z m 1.06366,3.15527 q 0.14472,-10e-4 0.23305,0.0994 0.0917,0.10449 0.0899,0.25262 -0.002,0.1688 -0.19655,0.29388 -0.26397,0.17247 -0.35868,0.30912 -0.19652,0.29043 -0.20339,0.84849 -0.007,0.53395 0.21859,0.99496 0.28905,0.58927 0.81611,0.59576 0.43404,0.005 0.69158,-0.48417 0.22216,-0.41416 0.24694,-1.02712 0.0274,-0.54403 0.2491,-0.92374 0.28505,-0.48573 0.80522,-0.47933 0.61318,0.008 1.11101,0.70965 0.47064,0.67074 0.46191,1.38038 -0.004,0.33415 -0.12297,0.75302 -0.155,0.55625 -0.38581,0.5534 -0.30314,-0.004 -0.29933,-0.31377 0.002,-0.1378 0.0782,-0.48139 0.08,-0.34355 0.0789,-0.53306 -3.9e-4,-0.53747 -0.25401,-0.91615 -0.2605,-0.38908 -0.63943,-0.39375 -0.28593,-0.004 -0.40933,0.50488 -0.0471,0.18892 -0.0917,0.73273 -0.0683,0.78815 -0.51124,1.22715 -0.40461,0.40157 -0.9799,0.39448 -0.81987,-0.0101 -1.2997,-0.77398 -0.41561,-0.66318 -0.40493,-1.53128 0.008,-0.6304 0.25536,-1.15105 0.30413,-0.6371 0.82099,-0.64106 z m -1.09478,7.76614 q 0.002,-0.18947 0.20341,-0.29035 0.35013,-0.17485 0.82997,-0.53071 l 0.83772,-0.59951 q -0.156,-0.20175 -0.43676,-0.62555 -0.53348,-0.0445 -1.03986,-0.0507 -0.15502,-0.002 -0.25029,-0.0996 -0.0953,-0.0942 -0.0935,-0.24233 0.004,-0.34794 0.47278,-0.34217 0.28593,0.004 0.85386,0.0484 0.57133,0.0483 0.85726,0.0519 0.52361,0.006 1.19519,0.0285 0.67497,0.0255 1.19169,0.0319 0.15502,0.002 0.36537,-0.0127 0.2103,-0.0112 0.36532,-0.009 0.15502,0.002 0.25033,0.0961 0.0953,0.0977 0.0935,0.24577 -0.002,0.14813 -0.0995,0.23995 -0.0977,0.0953 -0.25266,0.0934 -0.15846,-0.002 -0.37571,0.0126 -0.21378,0.0146 -0.37225,0.0126 l -1.10894,-0.0377 q -0.59918,-0.0246 -1.19867,-0.0251 0.35249,0.4729 0.77431,0.91222 l 0.77265,0.76749 q 0.11572,0.11512 0.1141,0.24602 -0.002,0.13435 -0.10976,0.23983 -0.10814,0.10892 -0.24937,0.10718 -0.11714,-10e-4 -0.22958,-0.10273 -0.49084,-0.42983 -1.0516,-1.05689 l -1.03236,0.73837 q -0.72647,0.5182 -0.94349,0.51553 -0.13779,-0.002 -0.23634,-0.11316 -0.0986,-0.10802 -0.0968,-0.24926 z m 4.47347,2.12573 q 0.002,-0.16534 0.12064,-0.28447 0.11857,-0.11568 0.28047,-0.11369 0.16536,0.002 0.28104,0.1206 0.11564,0.12202 0.1136,0.28736 -0.002,0.16536 -0.12064,0.28449 -0.11861,0.11913 -0.28396,0.11709 -0.16191,-0.002 -0.27755,-0.124 -0.11563,-0.12202 -0.1136,-0.28738 z m -5.15658,-0.0911 q 0.40301,0.008 2.0649,-0.0917 l 1.89955,-0.0937 q 0.17223,0.002 0.3054,0.10026 0.13311,0.10155 0.13125,0.25313 -10e-4,0.11712 -0.089,0.23319 -0.0875,0.11606 -0.17721,0.12185 l -1.98562,0.0892 -2.12317,0.0669 q -0.47883,-0.006 -0.86458,-0.29662 -0.41989,-0.31524 -0.41442,-0.75963 0.009,-0.74065 1.1555,-1.22611 0.0935,-0.0402 0.16587,-0.0393 0.13779,0.002 0.23638,0.10972 0.0985,0.11146 0.0968,0.24926 -0.003,0.20325 -0.45306,0.41819 -0.1178,0.0537 -0.33997,0.18876 -0.17389,0.13223 -0.17605,0.30792 -0.002,0.15157 0.22418,0.26116 0.17122,0.0848 0.34321,0.10758 z m 0.55834,3.06291 q 0.007,-0.57873 0.43941,-0.9903 0.48111,-0.4592 1.28406,-0.47342 0.77878,-0.0111 1.36621,0.40959 0.69337,0.49088 0.68276,1.3521 -0.008,0.68896 -0.64326,1.03601 -0.51331,0.27621 -1.22971,0.25704 -0.76462,-0.0197 -1.30067,-0.41567 -0.60775,-0.44849 -0.5988,-1.17535 z m 3.07369,0.24457 q 0.009,-0.50636 -0.47256,-0.79481 -0.38652,-0.22871 -0.88602,-0.23486 -0.4995,-0.006 -0.78188,0.26256 -0.2336,0.22452 -0.23738,0.53111 -0.004,0.35826 0.25422,0.61985 0.28575,0.29637 0.77815,0.31967 1.33257,0.0646 1.34547,-0.70352 z m 1.21594,0.022 q 0.002,-0.12401 0.0992,-0.21928 0.0976,-0.0918 0.22161,-0.0903 0.11713,10e-4 0.2226,0.10954 0.14286,0.14991 0.54218,0.45802 0.29345,0.23101 0.48637,0.51245 0.0643,0.0938 0.0632,0.18339 -0.002,0.12401 -0.10256,0.21579 -0.0976,0.0918 -0.22162,0.0903 -0.13779,-0.002 -0.23952,-0.13387 -0.18995,-0.24352 -0.49378,-0.47121 -0.32093,-0.23824 -0.49403,-0.45053 -0.0849,-0.0976 -0.0836,-0.20431 z m -1.41904,3.04201 -1.71145,-0.0728 q -0.27214,-0.003 -0.79886,-0.0374 -0.34406,-0.0386 -0.34033,-0.34184 0.004,-0.33759 0.35553,-0.33327 0.41683,0.005 1.25001,0.0533 0.83663,0.0482 1.25346,0.0533 0.54427,0.007 1.24337,0.0325 0.70253,0.0258 1.24681,0.0326 0.34449,0.004 0.34033,0.34183 -0.004,0.34105 -0.34868,0.3368 -0.54428,-0.007 -1.24682,-0.0326 -0.69909,-0.0258 -1.24337,-0.0325 z m 0.28206,4.23437 q -0.50588,-0.0475 -1.01228,-0.0538 -1.14713,-0.0141 -1.73406,0.0854 -0.0483,0.006 -0.0793,0.006 -0.13779,-0.002 -0.22617,-0.0993 -0.0884,-0.0976 -0.0868,-0.22502 0.003,-0.21358 0.3139,-0.30966 -0.17953,-0.25028 -0.26923,-0.52012 -0.0897,-0.2664 -0.0862,-0.55576 0.009,-0.71308 0.48995,-1.17573 0.49166,-0.47629 1.25296,-0.46692 0.91977,0.0113 1.46841,0.50388 0.5486,0.49599 0.53902,1.27452 -0.005,0.3996 -0.13162,0.6151 l -0.24167,0.32088 q 1.44968,0.0661 1.95182,0.13773 0.30603,0.0486 0.30273,0.31726 -0.004,0.31348 -0.33801,0.30937 -0.47883,-0.006 -2.11343,-0.16384 z m -0.0708,-1.53061 q 0.007,-0.57873 -0.3338,-0.87234 -0.33748,-0.29357 -1.02645,-0.30205 -0.44437,-0.005 -0.76861,0.30406 -0.32427,0.31298 -0.32948,0.7367 -0.004,0.28937 0.10077,0.49048 0.0606,0.11789 0.28121,0.3859 0.0442,0.0522 0.10556,0.10121 l 0.59608,-0.003 0.39956,0.008 0.40641,0.012 q 0.28064,-0.12747 0.42111,-0.3428 0.14391,-0.21529 0.14764,-0.51843 z m -3.24351,5.15221 q 8.1e-4,-0.0654 0.15451,-0.23582 0.14314,-0.15328 0.25431,-0.22771 -0.17507,-0.33291 -0.26153,-0.58548 -0.0899,-0.25262 -0.0878,-0.42141 0.01,-0.8061 0.46919,-1.1691 0.43144,-0.34267 1.31331,-0.33181 0.83366,0.0103 1.41912,0.5894 0.58543,0.58259 0.57564,1.37834 -0.004,0.2997 -0.16329,0.66984 -0.19868,0.46612 -0.47083,0.46277 -0.093,-10e-4 -0.16449,-0.0709 -0.13049,-0.036 -0.42993,-0.0604 -0.29949,-0.0209 -0.76795,-0.0302 -0.42712,-0.008 -0.6759,0.0503 -0.152,0.0325 -0.60897,0.20956 -0.0623,0.0233 -0.18355,0.077 l -0.0589,0.02 q -0.13779,-0.002 -0.22617,-0.0993 -0.0884,-0.0976 -0.0868,-0.22503 z m 2.40299,-0.68704 q 0.14812,0.002 0.32015,0.0211 0.17544,0.0229 0.37133,0.0632 0.0671,-0.12666 0.0992,-0.21929 0.0321,-0.0892 0.0328,-0.1443 0.007,-0.53395 -0.42613,-0.9286 -0.42929,-0.39117 -0.99769,-0.39817 -0.56496,-0.007 -0.8499,0.18937 -0.28493,0.19632 -0.28985,0.59592 -0.004,0.33071 0.11365,0.56299 0.064,0.12483 0.25753,0.35116 0.91424,-0.099 1.36896,-0.0934 z m 0.50992,2.51795 -1.71145,-0.0728 q -0.27214,-0.003 -0.79886,-0.0374 -0.34406,-0.0386 -0.34033,-0.34183 0.004,-0.3376 0.35553,-0.33327 0.41683,0.005 1.25001,0.0533 0.83663,0.0482 1.25346,0.0533 0.54427,0.007 1.24337,0.0325 0.70254,0.0259 1.24681,0.0326 0.34449,0.004 0.34033,0.34184 -0.004,0.34103 -0.34868,0.33679 -0.54428,-0.007 -1.24682,-0.0326 -0.69909,-0.0258 -1.24337,-0.0325 z"
       id="text19"
       aria-label="Kristján Skjóldal" /><path
       style="font-size:7.05556px;line-height:0;font-family:'Comic Sans MS';-inkscape-font-specification:'Comic Sans MS';fill:#000000;stroke:#000000;stroke-width:0.05"
       d="m 15.923868,506.04748 -2.01948,-0.10144 q -0.0564,0.3552 -0.0559,0.44477 0.004,0.57877 0.29875,0.97317 0.32647,0.4321 0.86734,0.42882 0.38584,-0.002 0.66238,-0.41744 0.25261,-0.38394 0.24993,-0.82491 z m 0.69594,0.003 -0.0724,4.4e-4 0.0311,0.57515 q 0.0272,0.51661 -0.31388,1.07335 -0.44695,0.71931 -1.2462,0.72416 -0.85437,0.005 -1.36472,-0.63941 -0.45482,-0.57603 -0.45975,-1.38906 -7.7e-4,-0.12746 0.0523,-0.46196 l -1.10591,-2.9e-4 q -0.13779,8.4e-4 -0.2348,-0.0882 -0.0935,-0.089 -0.0944,-0.22336 -8.4e-4,-0.1378 0.0916,-0.22793 0.0959,-0.0902 0.23372,-0.091 l 1.01284,-0.006 q 0.50642,-0.003 1.42662,0.0533 0.99603,0.0629 1.4267,0.0671 l 0.47541,-0.003 q 0.34107,-0.002 0.49635,0.0383 0.2657,0.0708 0.26386,0.33603 -10e-4,0.27217 -0.43242,0.27479 -0.0965,5.8e-4 -0.18611,-0.0127 z m -4.90016,4.35341 q -0.004,-0.57876 0.42114,-0.99821 0.47259,-0.46796 1.27514,-0.49695 0.77845,-0.0254 1.37351,0.38441 0.70226,0.47807 0.70749,1.33933 0.004,0.689 -0.62411,1.04766 -0.50814,0.28559 -1.22477,0.27961 -0.76487,-0.006 -1.3081,-0.3917 -0.61589,-0.43725 -0.6203,-1.16415 z m 3.07767,0.18803 q -8e-5,-0.50644 -0.48709,-0.78598 -0.39065,-0.22156 -0.89018,-0.21853 -0.49953,0.003 -0.77693,0.27688 -0.22943,0.22877 -0.22757,0.53538 0.002,0.35828 0.26556,0.61507 0.29116,0.29107 0.7839,0.30531 1.33352,0.0401 1.33231,-0.72813 z m -0.2976,4.89394 q -0.43076,-0.0215 -0.43271,-0.34189 -0.002,-0.29628 0.33926,-0.29835 0.0655,-4e-4 0.24109,-0.0118 l 0.28932,-0.0121 q -0.0688,-0.54391 -0.3119,-0.86973 -0.22579,-0.30525 -0.67832,-0.50576 l -1.88784,0.0185 q -0.34794,0.002 -0.35001,-0.33894 -0.002,-0.30316 0.3461,-0.30527 l 2.41842,-0.0147 q 0.11369,-6.9e-4 0.34109,0.005 0.22744,0.009 0.34113,0.008 0.34794,-0.002 0.34978,0.30105 0.002,0.33762 -0.5698,0.34454 0.64135,0.65757 0.64624,1.46371 0.002,0.27905 -0.20762,0.41812 -0.20931,0.13908 -0.63305,0.14165 -0.17914,10e-4 -0.24117,-0.002 z m 0.12522,3.03442 q -10e-4,-0.18947 0.12586,-0.26604 0.0893,-0.0522 0.37152,-0.0919 -0.067,-0.25798 -0.24598,-0.79434 -0.22385,-0.55332 -0.5477,-0.55479 -0.0373,0.10358 -0.0539,0.20359 -0.13644,0.79321 -0.38214,1.18056 -0.35832,0.56374 -1.04388,0.5679 -0.56154,0.003 -0.85043,-0.48061 -0.23671,-0.40164 -0.24045,-1.01831 -0.003,-0.45129 0.14636,-0.86217 0.1897,-0.53172 0.5342,-0.53381 0.13781,-8.3e-4 0.2418,0.10534 0.10402,0.10961 0.10486,0.24742 6.4e-4,0.10679 -0.16369,0.2766 -0.0787,0.0832 -0.12866,0.37286 -0.0399,0.23107 -0.0389,0.38954 0.002,0.28938 0.072,0.50945 0.10184,0.31978 0.31889,0.31846 0.46853,-0.003 0.62991,-0.65841 l 0.077,-0.35876 q 0.0971,-0.4588 0.2303,-0.65253 0.19123,-0.28022 0.58053,-0.28258 0.72,-0.004 1.03073,0.67244 0.0942,0.20614 0.2245,0.66011 0.13366,0.45395 0.22443,0.64977 0.0629,0.14087 0.0639,0.30624 9e-4,0.14813 -0.095,0.24173 -0.0959,0.0971 -0.25091,0.098 -0.0999,6.1e-4 -0.29257,0.0431 -0.19265,0.046 -0.29256,0.0466 -0.15502,9.5e-4 -0.25207,-0.095 -0.0971,-0.0924 -0.098,-0.24057 z m 0.30322,3.41233 q -4.4e-4,-0.0724 0.006,-0.1723 0.006,-0.0965 0.006,-0.16885 -4.9e-4,-0.0792 -0.0546,-0.46821 l -2.03561,0.0779 -0.15156,0.004 -0.17568,0.004 q -0.75438,0.0184 -0.75666,-0.35715 -8.4e-4,-0.1378 0.0881,-0.2417 0.089,-0.10045 0.22333,-0.10126 0.13091,-8e-4 0.3928,0.008 0.26188,0.009 0.39279,0.008 l 2.01148,-0.0811 q 0.009,-0.25154 0.054,-0.76515 0.0394,-0.30685 0.3392,-0.30867 0.15158,-9.2e-4 0.25205,0.0915 0.10046,0.0924 0.10134,0.2371 l -0.0542,0.72381 q 0.1757,-0.001 0.46842,-0.02 0.29619,-0.0156 0.4271,-0.0164 0.14469,-8.8e-4 0.23832,0.0984 0.0971,0.0993 0.098,0.24401 0.002,0.31006 -0.50422,0.36481 -0.12741,0.0111 -0.30655,0.0122 l -0.19985,-0.006 -0.21362,-0.002 q 0.0577,0.42685 0.0581,0.48885 0.002,0.35829 -0.0317,0.46873 -0.0676,0.21058 -0.32255,0.21213 -0.15158,9.2e-4 -0.25208,-0.095 -0.0971,-0.0924 -0.098,-0.24056 z m -3.0777,2.64733 q -0.005,-0.77858 0.38165,-1.26325 0.42743,-0.5297 1.20255,-0.53441 0.89572,-0.005 1.50468,0.42496 0.6643,0.46796 0.66909,1.25687 0.003,0.57187 -0.18725,0.93478 -0.23501,0.44585 -0.72765,0.44884 -0.3445,0.002 -0.62936,-0.38549 -0.12506,-0.17149 -0.39028,-0.728 l -0.63153,-1.31222 q -0.28477,0.19466 -0.42773,0.48147 -0.14293,0.29026 -0.14061,0.67267 0.001,0.2377 0.093,0.55754 0.11615,0.40583 0.29945,0.52186 0.18674,0.11599 0.18755,0.25035 7.4e-4,0.12058 -0.0917,0.21415 -0.089,0.097 -0.20956,0.0978 -0.38239,0.002 -0.66174,-0.61268 -0.23746,-0.52567 -0.24049,-1.02519 z m 3.13787,-0.11204 q -0.003,-0.4203 -0.33153,-0.69736 -0.32552,-0.27708 -0.98091,-0.41091 l 0.50939,1.05457 q 0.30695,0.62171 0.53249,0.88562 0.2738,-0.29794 0.27056,-0.83192 z m 1.39971,2.99913 q -0.001,-0.16537 0.11539,-0.28665 0.11641,-0.12129 0.28177,-0.12229 0.16536,-10e-4 0.28322,0.11886 0.11786,0.11986 0.11887,0.28523 0.001,0.16535 -0.11542,0.2832 -0.11639,0.12129 -0.28176,0.12229 -0.16536,10e-4 -0.28323,-0.11886 -0.11784,-0.11643 -0.11884,-0.28178 z m -2.79643,0.172 q -0.20669,10e-4 -0.62004,0.0141 -0.40987,0.0163 -0.61658,0.0176 -0.15158,9.2e-4 -0.24861,-0.0915 -0.0971,-0.0924 -0.098,-0.24402 -9e-4,-0.14812 0.095,-0.24518 0.0959,-0.0936 0.24748,-0.0945 0.20671,-10e-4 0.61658,-0.0175 0.41335,-0.0128 0.62004,-0.0141 0.32384,-0.002 0.80635,0.0295 0.48596,0.0315 0.80979,0.0295 0.15503,-9.4e-4 0.25205,0.0915 0.0971,0.0959 0.098,0.24401 9e-4,0.14814 -0.095,0.24174 -0.0959,0.0971 -0.2509,0.098 -0.32383,0.002 -0.80979,-0.0295 -0.48251,-0.0315 -0.80635,-0.0295 z m -1.78553,3.81774 q -0.002,-0.29628 0.32179,-0.33613 l 0.75388,-0.10108 q 0.40278,-0.0506 0.75418,-0.0528 0.0965,-5.8e-4 0.32733,0.008 0.2309,0.0124 0.32737,0.0118 0.74413,-0.005 0.74246,-0.28012 -0.002,-0.38584 -0.46267,-0.73446 -0.41878,-0.31441 -1.05719,-0.48968 -0.1344,-0.006 -0.3378,-0.029 -0.17239,-0.0197 -0.33429,-0.0187 -0.10336,6.3e-4 -0.30993,0.0226 -0.20658,0.0219 -0.30993,0.0226 -0.15503,9.4e-4 -0.25207,-0.095 -0.0971,-0.0924 -0.098,-0.24057 -9.2e-4,-0.15158 0.095,-0.24518 0.0959,-0.0936 0.25092,-0.0945 0.10335,-6.2e-4 0.30991,-0.026 0.20657,-0.0219 0.30993,-0.0226 0.35483,-0.002 0.98212,0.0422 0.63076,0.0479 0.9856,0.0457 0.11024,-6.7e-4 0.32719,-0.0158 0.21697,-0.0116 0.32721,-0.0123 0.14814,-9e-4 0.24174,0.095 0.0971,0.0993 0.098,0.24401 0.002,0.31695 -0.44574,0.35068 l -0.403,0.0127 q 0.7752,0.57409 0.7789,1.18386 0.003,0.55121 -0.48108,0.77119 -0.32294,0.1501 -0.95674,0.16773 l -0.34795,0.002 -0.32041,-10e-4 q -0.28594,0.002 -0.74024,0.0769 -0.45084,0.0785 -0.73333,0.0802 -0.15158,9.2e-4 -0.24521,-0.0984 -0.0971,-0.0959 -0.098,-0.24401 z m 0.0224,3.69307 q -0.002,-0.29626 0.3218,-0.33613 l 0.75388,-0.10108 q 0.40278,-0.0506 0.75417,-0.0528 0.0965,-5.9e-4 0.32734,0.008 0.2309,0.0124 0.32737,0.0118 0.74412,-0.005 0.74245,-0.28012 -0.002,-0.38584 -0.46267,-0.73445 -0.41877,-0.31442 -1.05719,-0.48969 -0.1344,-0.006 -0.3378,-0.029 -0.17238,-0.0197 -0.33429,-0.0187 -0.10336,6.3e-4 -0.30993,0.0226 -0.20658,0.022 -0.30993,0.0226 -0.15502,9.4e-4 -0.25207,-0.095 -0.0971,-0.0924 -0.098,-0.24057 -9.2e-4,-0.15158 0.095,-0.24518 0.0959,-0.0936 0.25093,-0.0945 0.10334,-6.3e-4 0.3099,-0.026 0.20657,-0.022 0.30993,-0.0226 0.35484,-0.002 0.98213,0.0422 0.63075,0.0479 0.98559,0.0457 0.11024,-6.7e-4 0.32719,-0.0158 0.21698,-0.0116 0.32721,-0.0123 0.14814,-9e-4 0.24175,0.095 0.0971,0.0993 0.098,0.24402 0.002,0.31693 -0.44574,0.35066 l -0.403,0.0127 q 0.7752,0.57408 0.7789,1.18385 0.003,0.55121 -0.48109,0.77119 -0.32294,0.1501 -0.95674,0.16773 l -0.34795,0.002 -0.32041,-10e-4 q -0.28593,0.002 -0.74024,0.0768 -0.45084,0.0785 -0.73333,0.0802 -0.15158,9.2e-4 -0.2452,-0.0984 -0.0971,-0.0959 -0.098,-0.24402 z m 5.14536,7.66526 q -0.14501,-0.0508 -0.42406,-0.0491 -0.10335,6.2e-4 -0.30656,0.009 -0.20322,0.008 -0.30656,0.009 -0.34451,0.002 -1.027,-0.0558 -0.68247,-0.0545 -1.02698,-0.0524 -0.26182,0.002 -0.78523,0.0427 -0.52342,0.0411 -0.78869,0.0427 -0.14125,8.5e-4 -0.23829,-0.0951 -0.0971,-0.0924 -0.0979,-0.23368 -8.4e-4,-0.1378 0.0951,-0.23484 0.0959,-0.0971 0.23712,-0.0979 0.26526,-0.002 0.78868,-0.0427 0.52341,-0.0411 0.78524,-0.0427 0.25148,-0.002 0.50996,0.0141 -0.0139,-0.58904 -0.18454,-1.45619 l -0.29127,-1.4452 q -0.31005,0.002 -0.8823,-0.0566 -0.56881,-0.0585 -0.88232,-0.0566 -0.14123,8.6e-4 -0.23829,-0.0951 -0.10046,-0.0924 -0.10132,-0.23365 -8.5e-4,-0.14125 0.0985,-0.23833 0.0959,-0.0936 0.23714,-0.0944 0.36517,-0.002 1.08899,0.052 0.72728,0.0576 1.09245,0.0554 0.18948,-10e-4 0.5718,-0.0173 0.38231,-0.0161 0.57523,-0.0173 0.27216,-0.002 0.81669,0.0295 0.54797,0.0311 0.82012,0.0294 0.14469,-8.8e-4 0.24172,0.0915 0.0971,0.0959 0.0979,0.23713 8.6e-4,0.14124 -0.0951,0.23484 -0.0959,0.0971 -0.24057,0.098 -0.27561,0.002 -0.82704,-0.0329 -0.54797,-0.0311 -0.82357,-0.0294 l -0.87147,0.026 0.28801,1.47622 q 0.17074,0.88437 0.18131,1.49065 0.49287,0.0349 1.48504,0.0289 0.26182,-0.002 0.53106,0.0829 0.3693,0.11145 0.37056,0.31815 7.9e-4,0.1309 -0.0951,0.23485 -0.0924,0.10391 -0.23708,0.10479 -0.0517,3.1e-4 -0.14143,-0.0301 z m -4.99742,2.52119 q -0.005,-0.77858 0.38164,-1.26324 0.42744,-0.5297 1.20256,-0.53441 0.89572,-0.005 1.50468,0.42496 0.6643,0.46796 0.66909,1.25686 0.003,0.57188 -0.18725,0.93478 -0.23501,0.44585 -0.72765,0.44884 -0.3445,0.002 -0.62936,-0.38548 -0.12506,-0.1715 -0.39028,-0.728 l -0.63153,-1.31223 q -0.28478,0.19466 -0.42773,0.48148 -0.14293,0.29026 -0.14061,0.67266 10e-4,0.2377 0.093,0.55755 0.11615,0.40582 0.29945,0.52184 0.18674,0.11601 0.18755,0.25036 7.3e-4,0.12058 -0.0917,0.21416 -0.089,0.097 -0.20956,0.0978 -0.38239,0.002 -0.66174,-0.61266 -0.23746,-0.52567 -0.2405,-1.0252 z m 3.13787,-0.11205 q -0.003,-0.42029 -0.33153,-0.69735 -0.32552,-0.27708 -0.98091,-0.41091 l 0.50939,1.05458 q 0.30695,0.62171 0.53249,0.88561 0.2738,-0.29795 0.27056,-0.83193 z m 1.39971,2.99914 q -0.001,-0.16536 0.11539,-0.28665 0.11641,-0.12129 0.28176,-0.12229 0.16537,-10e-4 0.28323,0.11886 0.11786,0.11987 0.11886,0.28522 0.001,0.16537 -0.11541,0.28321 -0.1164,0.12129 -0.28176,0.12229 -0.16536,10e-4 -0.28323,-0.11886 -0.11784,-0.11642 -0.11884,-0.28178 z m -2.79643,0.172 q -0.2067,10e-4 -0.62005,0.0141 -0.40986,0.0163 -0.61657,0.0175 -0.15158,9.2e-4 -0.24861,-0.0915 -0.0971,-0.0924 -0.098,-0.24401 -9e-4,-0.14814 0.095,-0.24518 0.0959,-0.0936 0.24748,-0.0945 0.20671,-10e-4 0.61658,-0.0176 0.41335,-0.0128 0.62004,-0.0141 0.32384,-0.002 0.80635,0.0295 0.48596,0.0316 0.80979,0.0296 0.15503,-9.4e-4 0.25205,0.0915 0.0971,0.0959 0.098,0.24401 9e-4,0.14813 -0.095,0.24174 -0.0959,0.0971 -0.2509,0.098 -0.32383,0.002 -0.80979,-0.0295 -0.48251,-0.0315 -0.80635,-0.0295 z m -0.3155,1.94154 q -0.26872,0.002 -0.5087,0.19602 -0.25367,0.20824 -0.25206,0.47352 0.003,0.49608 0.49009,0.71362 0.35928,0.16318 0.92083,0.15977 0.19637,-10e-4 0.74983,-0.20092 -0.0459,-0.18232 -0.16176,-0.53991 -0.3253,-0.80764 -1.23823,-0.8021 z m 3.17486,0.30803 0.25647,-0.31507 q 0.17446,-0.20433 0.31227,-0.20516 0.12402,-7.6e-4 0.22105,0.0917 0.0971,0.0959 0.0978,0.2199 10e-4,0.21014 -0.59509,0.7202 0.31713,0.59753 0.31847,0.81801 8.5e-4,0.14125 -0.0916,0.23138 -0.089,0.0936 -0.23025,0.0944 -0.12058,7.4e-4 -0.19699,-0.0987 l -0.12881,-0.22316 -0.19548,-0.41912 q -1.33453,0.92796 -2.2888,0.93375 -0.82337,0.005 -1.36623,-0.319 -0.65696,-0.3922 -0.66164,-1.16389 -0.003,-0.5202 0.42857,-0.90869 0.41458,-0.37803 0.94167,-0.38123 0.73034,-0.004 1.28466,0.50553 0.52662,0.48602 0.67232,1.21896 0.38817,-0.18495 0.70388,-0.39013 l -0.24704,-0.40159 q -0.18797,-0.31926 -0.18853,-0.41227 -8e-4,-0.13091 0.10196,-0.22801 0.10279,-0.0936 0.23714,-0.0944 0.15503,-9.4e-4 0.2697,0.16028 0.0625,0.0892 0.34451,0.56637 z m -4.60559,5.20602 q -4e-4,-0.0655 0.15014,-0.23863 0.1403,-0.15588 0.25008,-0.23234 -0.18115,-0.32964 -0.27224,-0.58058 -0.0945,-0.25092 -0.0956,-0.41973 -0.005,-0.80613 0.44762,-1.17752 0.42507,-0.35053 1.30699,-0.35589 0.83371,-0.005 1.42972,0.56322 0.59604,0.57172 0.60087,1.36753 0.002,0.29972 -0.15095,0.67272 -0.19008,0.4697 -0.46224,0.47135 -0.093,5.6e-4 -0.16577,-0.0679 -0.13113,-0.0336 -0.43097,-0.0525 -0.29982,-0.0154 -0.76837,-0.016 -0.4272,-4.1e-4 -0.67487,0.0627 -0.15137,0.0353 -0.60501,0.22071 -0.0618,0.0245 -0.1821,0.0803 l -0.0585,0.021 q -0.13779,8.4e-4 -0.22796,-0.0951 -0.0902,-0.096 -0.0909,-0.22339 z m 2.38994,-0.73109 q 0.14814,-9e-4 0.3205,0.0153 0.17582,0.0196 0.37242,0.0563 0.0647,-0.12786 0.0952,-0.22107 0.0305,-0.0898 0.0301,-0.14487 -0.003,-0.53398 -0.44312,-0.92062 -0.43642,-0.38321 -1.00485,-0.37976 -0.56499,0.003 -0.84627,0.20496 -0.28128,0.20152 -0.27886,0.60114 0.002,0.33073 0.12399,0.56081 0.0662,0.12363 0.26394,0.34636 0.91226,-0.11577 1.367,-0.11853 z m 0.40515,4.31432 q -0.43077,-0.0215 -0.43271,-0.34189 -0.002,-0.29627 0.33926,-0.29834 0.0655,-3.9e-4 0.24109,-0.0118 l 0.28932,-0.0121 q -0.0688,-0.54391 -0.3119,-0.86973 -0.22579,-0.30525 -0.67832,-0.50576 l -1.88784,0.0184 q -0.34794,0.002 -0.35001,-0.33894 -0.002,-0.30316 0.3461,-0.30527 l 2.41842,-0.0147 q 0.11369,-6.9e-4 0.34109,0.005 0.22744,0.009 0.34113,0.008 0.34794,-0.002 0.34978,0.30105 0.002,0.33762 -0.5698,0.34454 0.64135,0.65757 0.64624,1.46371 0.002,0.27905 -0.20762,0.41812 -0.20931,0.13908 -0.63305,0.14165 -0.17914,10e-4 -0.24117,-0.002 z m 2.35282,7.34114 q -0.145,-0.0508 -0.42406,-0.0491 -0.10335,6.2e-4 -0.30656,0.009 -0.20321,0.008 -0.30656,0.009 -0.3445,0.002 -1.027,-0.0558 -0.68247,-0.0545 -1.02698,-0.0524 -0.26182,0.002 -0.78523,0.0427 -0.52342,0.0411 -0.78869,0.0427 -0.14124,8.6e-4 -0.23829,-0.095 -0.0971,-0.0924 -0.0979,-0.23367 -8.3e-4,-0.13781 0.0951,-0.23485 0.0959,-0.0971 0.23712,-0.0979 0.26526,-0.002 0.78868,-0.0427 0.52341,-0.0411 0.78524,-0.0427 0.25149,-0.002 0.50996,0.0141 -0.0139,-0.58904 -0.18454,-1.45618 l -0.29127,-1.44521 q -0.31005,0.002 -0.8823,-0.0566 -0.56881,-0.0585 -0.88231,-0.0566 -0.14124,8.6e-4 -0.23829,-0.0951 -0.10047,-0.0924 -0.10132,-0.23366 -8.6e-4,-0.14124 0.0984,-0.23831 0.0959,-0.0936 0.23714,-0.0944 0.36518,-0.002 1.08899,0.052 0.72728,0.0576 1.09246,0.0554 0.18947,-0.001 0.57179,-0.0173 0.38231,-0.0161 0.57524,-0.0173 0.27215,-0.002 0.81668,0.0294 0.54797,0.0311 0.82012,0.0294 0.14469,-8.8e-4 0.24172,0.0915 0.0971,0.0959 0.0979,0.23712 8.6e-4,0.14124 -0.0951,0.23485 -0.0959,0.0971 -0.24057,0.098 -0.27561,0.002 -0.82704,-0.0329 -0.54796,-0.0311 -0.82357,-0.0294 l -0.87147,0.026 0.28802,1.47623 q 0.17074,0.88437 0.18131,1.49066 0.49287,0.0349 1.48503,0.0289 0.26182,-0.002 0.53106,0.0829 0.3693,0.11145 0.37056,0.31815 7.9e-4,0.13091 -0.0951,0.23485 -0.0924,0.10392 -0.23708,0.1048 -0.0517,3.1e-4 -0.14143,-0.0302 z m -2.28656,3.57618 q -0.43077,-0.0215 -0.43271,-0.34189 -0.002,-0.29628 0.33925,-0.29835 0.0655,-4e-4 0.2411,-0.0118 l 0.28932,-0.0121 q -0.0688,-0.54391 -0.31191,-0.86973 -0.22578,-0.30525 -0.67832,-0.50576 l -1.88783,0.0185 q -0.34794,0.002 -0.35001,-0.33895 -0.002,-0.30315 0.3461,-0.30526 l 2.41841,-0.0147 q 0.11369,-6.9e-4 0.3411,0.005 0.22744,0.009 0.34113,0.008 0.34794,-0.002 0.34978,0.30105 0.002,0.33761 -0.5698,0.34453 0.64134,0.65758 0.64624,1.46372 0.002,0.27905 -0.20762,0.41812 -0.20931,0.13908 -0.63305,0.14165 -0.17914,10e-4 -0.24118,-0.002 z m -2.69028,2.33492 q -0.005,-0.77858 0.38164,-1.26324 0.42743,-0.52971 1.20256,-0.53441 0.89571,-0.005 1.50468,0.42495 0.6643,0.46796 0.66909,1.25688 0.003,0.57187 -0.18725,0.93477 -0.23501,0.44585 -0.72765,0.44884 -0.34451,0.002 -0.62936,-0.38548 -0.12507,-0.17151 -0.39028,-0.72801 l -0.63154,-1.31222 q -0.28477,0.19466 -0.42772,0.48148 -0.14293,0.29026 -0.14061,0.67265 10e-4,0.23771 0.093,0.55756 0.11616,0.40582 0.29946,0.52184 0.18673,0.11601 0.18755,0.25037 7.3e-4,0.12056 -0.0917,0.21415 -0.089,0.097 -0.20956,0.0978 -0.3824,0.002 -0.66174,-0.61266 -0.23747,-0.52567 -0.2405,-1.0252 z m 3.13787,-0.11205 q -0.003,-0.4203 -0.33153,-0.69736 -0.32553,-0.27708 -0.98091,-0.41091 l 0.50939,1.05457 q 0.30695,0.62171 0.53248,0.88562 0.27381,-0.29794 0.27057,-0.83192 z m 1.3997,2.99912 q -10e-4,-0.16536 0.1154,-0.28664 0.1164,-0.12129 0.28176,-0.1223 0.16537,-10e-4 0.28323,0.11887 0.11786,0.11986 0.11886,0.28522 0.001,0.16537 -0.11541,0.28321 -0.1164,0.12129 -0.28177,0.12229 -0.16535,10e-4 -0.28322,-0.11886 -0.11784,-0.11642 -0.11885,-0.28179 z m -2.79642,0.17201 q -0.2067,10e-4 -0.62005,0.0141 -0.40987,0.0163 -0.61657,0.0175 -0.15158,9.2e-4 -0.24861,-0.0915 -0.0971,-0.0924 -0.098,-0.24401 -9e-4,-0.14814 0.095,-0.24519 0.0959,-0.0936 0.24748,-0.0945 0.2067,-10e-4 0.61657,-0.0175 0.41335,-0.0128 0.62005,-0.0141 0.32383,-0.002 0.80634,0.0295 0.48596,0.0316 0.8098,0.0296 0.15502,-9.4e-4 0.25205,0.0915 0.0971,0.0959 0.098,0.24401 9e-4,0.14814 -0.095,0.24174 -0.0959,0.0971 -0.2509,0.098 -0.32384,0.002 -0.8098,-0.0295 -0.48251,-0.0315 -0.80634,-0.0295 z m -1.81637,5.55084 q -0.002,-0.28249 0.29772,-0.33254 0.37857,-0.0643 1.06721,-0.13051 l 1.06725,-0.12361 q 0.23749,-0.0358 0.46437,-0.11995 0.30934,-0.11902 0.3085,-0.25682 -7.7e-4,-0.12747 -0.21993,-0.47409 -0.20181,-0.32951 -0.32302,-0.43214 -0.32385,-10e-4 -0.64756,0.0211 l -0.9192,0.10893 q -0.54391,0.0688 -0.89875,0.071 -0.15158,9.2e-4 -0.24863,-0.095 -0.10047,-0.0924 -0.10137,-0.24054 -8.9e-4,-0.14814 0.0984,-0.24521 0.0959,-0.0936 0.24748,-0.0945 0.41685,-0.003 1.22935,-0.0936 0.81598,-0.0877 1.23283,-0.0902 0.36517,-0.002 0.5678,-0.10679 -0.11171,-0.24049 -0.36125,-0.48703 l -0.45722,-0.40375 q -0.083,-0.0546 -0.2181,-0.17438 -0.2067,10e-4 -0.61,-0.0342 -0.4033,-0.0355 -0.59622,-0.0343 -0.10336,6.2e-4 -0.2892,0.0328 -0.18582,0.0355 -0.2685,0.036 -0.14125,8.6e-4 -0.23836,-0.10535 -0.0971,-0.10277 -0.098,-0.24401 -0.002,-0.3893 0.88301,-0.39467 0.2067,-10e-4 0.61689,0.0342 0.41019,0.0354 0.61689,0.0341 0.18259,-10e-4 0.54755,-0.0377 0.36499,-0.0332 0.55102,-0.0343 0.78203,-0.005 0.78416,0.34664 8.2e-4,0.13436 -0.11565,0.24531 -0.11644,0.1144 -0.25424,0.11523 -0.0655,4e-4 -0.20337,-0.016 -0.1379,-0.0164 -0.21025,-0.0159 l -0.36168,0.009 q 0.3697,0.1769 0.66809,0.52305 0.30183,0.34613 0.30332,0.59072 0.003,0.54087 -0.53292,0.74739 0.25264,0.18795 0.37826,0.44903 0.12904,0.26105 0.13109,0.59866 0.003,0.57532 -0.61533,0.78923 -0.12378,0.0421 -0.96721,0.14712 -0.59195,0.1001 -1.97249,0.26003 -0.13774,0.0111 -0.23482,-0.0916 -0.0971,-0.10276 -0.098,-0.2509 z m 2.95944,3.41342 q -0.001,-0.18947 0.12586,-0.26604 0.0893,-0.0522 0.37152,-0.0919 -0.067,-0.25798 -0.24598,-0.79433 -0.22385,-0.55332 -0.5477,-0.5548 -0.0373,0.10358 -0.0539,0.20359 -0.13644,0.79321 -0.38214,1.18056 -0.35832,0.56375 -1.04388,0.56791 -0.56154,0.003 -0.85043,-0.48061 -0.23671,-0.40165 -0.24045,-1.01831 -0.003,-0.4513 0.14636,-0.86218 0.1897,-0.5317 0.5342,-0.5338 0.13781,-8.3e-4 0.2418,0.10534 0.10402,0.10961 0.10486,0.24741 6.4e-4,0.1068 -0.16369,0.27661 -0.0787,0.0832 -0.12866,0.37285 -0.0399,0.23107 -0.0389,0.38955 0.002,0.28938 0.072,0.50944 0.10184,0.31979 0.31889,0.31847 0.46853,-0.003 0.62991,-0.65841 l 0.077,-0.35876 q 0.0971,-0.4588 0.2303,-0.65254 0.19123,-0.28021 0.58053,-0.28258 0.72,-0.004 1.03073,0.67245 0.0942,0.20613 0.2245,0.6601 0.13366,0.45396 0.22443,0.64978 0.0629,0.14087 0.0639,0.30623 9e-4,0.14813 -0.095,0.24174 -0.0959,0.0971 -0.25091,0.098 -0.0999,6.1e-4 -0.29257,0.0431 -0.19265,0.046 -0.29256,0.0466 -0.15502,9.4e-4 -0.25207,-0.095 -0.0971,-0.0924 -0.098,-0.24057 z m 0.0208,3.4347 q -10e-4,-0.18948 0.12585,-0.26604 0.0893,-0.0522 0.37152,-0.0919 -0.067,-0.25799 -0.24597,-0.79435 -0.22385,-0.55331 -0.54771,-0.55479 -0.0373,0.10358 -0.0539,0.20359 -0.13644,0.79321 -0.38215,1.18057 -0.35831,0.56373 -1.04388,0.56789 -0.56154,0.003 -0.85042,-0.4806 -0.23671,-0.40165 -0.24046,-1.01831 -0.003,-0.4513 0.14636,-0.86219 0.1897,-0.5317 0.5342,-0.53379 0.13781,-8.4e-4 0.24181,0.10534 0.10401,0.10961 0.10485,0.2474 6.5e-4,0.1068 -0.16368,0.27661 -0.0787,0.0832 -0.12866,0.37286 -0.0399,0.23107 -0.0389,0.38954 0.002,0.28939 0.072,0.50945 0.10185,0.31978 0.31889,0.31847 0.46853,-0.003 0.62992,-0.65841 l 0.077,-0.35876 q 0.0971,-0.4588 0.23031,-0.65253 0.19123,-0.28023 0.58052,-0.28259 0.72001,-0.004 1.03073,0.67245 0.0943,0.20613 0.2245,0.66011 0.13367,0.45394 0.22444,0.64977 0.0629,0.14087 0.0639,0.30622 9e-4,0.14814 -0.095,0.24175 -0.0959,0.0971 -0.25091,0.098 -0.0999,6.1e-4 -0.29257,0.0431 -0.19264,0.046 -0.29255,0.0466 -0.15503,9.4e-4 -0.25207,-0.095 -0.0971,-0.0924 -0.098,-0.24057 z m -2.84136,2.41852 q -0.004,-0.57876 0.42114,-0.99821 0.47259,-0.46796 1.27514,-0.49695 0.77845,-0.0254 1.37351,0.38442 0.70226,0.47806 0.70749,1.33931 0.004,0.68901 -0.62411,1.04768 -0.50814,0.28559 -1.22477,0.27959 -0.76487,-0.006 -1.3081,-0.39169 -0.61589,-0.43724 -0.6203,-1.16415 z m 3.07767,0.18803 q -7e-5,-0.50643 -0.48709,-0.78598 -0.39065,-0.22157 -0.89018,-0.21854 -0.49953,0.003 -0.77693,0.27688 -0.22943,0.22878 -0.22757,0.53539 0.002,0.35828 0.26556,0.61506 0.29116,0.29108 0.7839,0.30531 1.33352,0.0401 1.33231,-0.72812 z m -3.08829,4.87298 q -0.002,-0.29628 0.32179,-0.33613 l 0.75388,-0.10108 q 0.40278,-0.0507 0.75418,-0.0528 0.0965,-5.8e-4 0.32733,0.008 0.2309,0.0124 0.32737,0.0118 0.74413,-0.005 0.74245,-0.28012 -0.002,-0.38584 -0.46266,-0.73446 -0.41878,-0.31441 -1.05719,-0.48968 -0.1344,-0.006 -0.33781,-0.029 -0.17238,-0.0197 -0.33429,-0.0187 -0.10335,6.2e-4 -0.30992,0.0226 -0.20658,0.0219 -0.30993,0.0226 -0.15503,9.4e-4 -0.25207,-0.095 -0.0971,-0.0924 -0.098,-0.24057 -9.2e-4,-0.15158 0.095,-0.24518 0.0959,-0.0936 0.25092,-0.0945 0.10335,-6.2e-4 0.30991,-0.026 0.20657,-0.0219 0.30993,-0.0226 0.35483,-0.002 0.98212,0.0422 0.63075,0.0479 0.9856,0.0457 0.11023,-6.7e-4 0.32719,-0.0158 0.21697,-0.0116 0.32721,-0.0123 0.14813,-9e-4 0.24174,0.095 0.0971,0.0993 0.098,0.24401 0.002,0.31695 -0.44574,0.35067 l -0.403,0.0127 q 0.7752,0.57409 0.7789,1.18385 0.003,0.55121 -0.48109,0.7712 -0.32293,0.1501 -0.95674,0.16773 l -0.34794,0.002 -0.32041,-10e-4 q -0.28594,0.002 -0.74024,0.0769 -0.45084,0.0785 -0.73334,0.0802 -0.15157,9.2e-4 -0.2452,-0.0984 -0.0971,-0.0959 -0.098,-0.24402 z"
       id="text20"
       aria-label="Þorsteinn Heiðar Hreimsson" /><path
       style="fill:#000000;fill-opacity:1;stroke:#000000;stroke-opacity:1;font-size:7.05556px;line-height:0;font-family:Arial;-inkscape-font-specification:Arial;stroke-width:0.05;stroke-dasharray:none"
       d="m 34.461891,439.50061 0.59599,0.001 -0.006,3.26938 -0.48232,-8.5e-4 q -0.51246,-0.48322 -1.36255,-0.96014 -0.8501,-0.47349 -1.74882,-0.73346 -0.63357,-0.18716 -1.38795,-0.24017 l 0.001,-0.63734 q 0.59598,0.0114 1.43964,0.23682 0.84365,0.22542 1.62495,0.64366 0.78474,0.42169 1.32134,0.89462 z m -0.007,3.92396 0.596,10e-4 -0.006,3.2694 -0.48232,-8.6e-4 q -0.51247,-0.48321 -1.36256,-0.96015 -0.8501,-0.47348 -1.74881,-0.73345 -0.63357,-0.18715 -1.38796,-0.24017 l 10e-4,-0.63733 q 0.59598,0.0113 1.43963,0.2368 0.84365,0.22542 1.62495,0.64366 0.78474,0.42169 1.32134,0.89462 z m -3.80568,7.13497 -0.596,-0.001 0.006,-3.3383 q 0.22394,-0.007 0.43051,0.0732 0.34083,0.12807 0.67107,0.40771 0.33023,0.28308 0.76337,0.81439 0.67379,0.82457 1.06601,1.11466 0.39568,0.29009 0.74708,0.29071 0.36863,6.5e-4 0.62059,-0.26419 0.2554,-0.26136 0.25615,-0.68511 7.9e-4,-0.44786 -0.26745,-0.71706 -0.26825,-0.26919 -0.74366,-0.27347 l 0.0665,-0.63724 q 0.71302,0.0668 1.08433,0.49457 0.37477,0.42785 0.3735,1.14788 -0.001,0.72692 -0.40512,1.14995 -0.40383,0.42304 -0.99983,0.42198 -0.30317,-5.3e-4 -0.59578,-0.12507 -0.29261,-0.12455 -0.61593,-0.41451 -0.32334,-0.28651 -0.88716,-0.95586 -0.46754,-0.55893 -0.63607,-0.71771 -0.16509,-0.15876 -0.33371,-0.26242 z m -0.59768,0.94979 5.0505,0.009 -0.006,3.4072 -0.596,-10e-4 0.005,-2.73884 -1.56407,-0.003 -0.004,2.37022 -0.596,-10e-4 0.004,-2.37022 -2.29444,-0.004 z m 1.3158,4.02621 0.054,0.65121 q -0.47555,0.0715 -0.71717,0.33292 -0.23818,0.26484 -0.23884,0.63691 -7.9e-4,0.44786 0.33628,0.75852 0.33707,0.31066 0.89517,0.31164 0.53055,9.4e-4 0.83769,-0.29824 0.30714,-0.29573 0.308,-0.77804 5.3e-4,-0.29973 -0.13686,-0.54113 -0.13393,-0.24139 -0.35073,-0.37958 l 0.0768,-0.58209 2.59329,0.49379 -0.004,2.51147 -0.59255,-10e-4 0.004,-2.01537 -1.35689,-0.27456 q 0.31615,0.45531 0.31526,0.95485 -10e-4,0.66145 -0.46017,1.11539 -0.459,0.45395 -1.17903,0.45268 -0.68557,-10e-4 -1.1844,-0.40174 -0.61237,-0.48683 -0.61089,-1.32744 0.001,-0.68902 0.38784,-1.12586 0.38663,-0.4334 1.02408,-0.49428 z m -1.33337,5.90944 1.20923,0.002 0.004,-2.19108 0.56844,10e-4 3.26876,2.31056 -9e-4,0.50643 -3.27283,-0.006 -0.001,0.68213 -0.56844,-0.001 0.001,-0.68212 -1.20923,-0.002 z m 1.77767,0.003 2.2772,0.004 -2.27441,-1.58533 z"
       id="text21"
       aria-label="772F54"
       transform="translate(-53.18125,24.077083)" /><path
       style="font-size:7.05556px;line-height:0;font-family:Arial;-inkscape-font-specification:Arial;fill:#000000;stroke:#000000;stroke-width:0.05"
       d="m -20.894905,378.81252 q 0.15095,-0.38216 0.4174,-0.56152 0.26644,-0.17936 0.63151,-0.17013 0.55103,0.0139 0.91642,0.41947 0.36538,0.40555 0.34876,1.06335 -0.0167,0.66125 -0.41262,1.05445 -0.39246,0.39328 -0.94351,0.37935 -0.35129,-0.009 -0.60833,-0.20146 -0.25369,-0.18906 -0.3854,-0.56803 -0.16329,0.46111 -0.50689,0.69366 -0.34369,0.236 -0.81208,0.22416 -0.64747,-0.0164 -1.07673,-0.48556 -0.42925,-0.46919 -0.41037,-1.21654 0.0189,-0.74735 0.4713,-1.19426 0.45585,-0.44682 1.1171,-0.4301 0.49249,0.0124 0.81685,0.26876 0.32771,0.25985 0.43659,0.7244 z m 1.05356,-0.0974 q -0.35818,-0.009 -0.59132,0.21596 -0.23314,0.225 -0.24245,0.5935 -0.009,0.35818 0.20906,0.59114 0.22148,0.23649 0.54865,0.24476 0.34096,0.009 0.57772,-0.22318 0.24011,-0.22828 0.24899,-0.57957 0.009,-0.35472 -0.21243,-0.59466 -0.22138,-0.23994 -0.53822,-0.24795 z m -2.32655,-0.25867 q -0.26519,-0.007 -0.51629,0.11101 -0.25118,0.12116 -0.39521,0.36565 -0.14058,0.24457 -0.1478,0.53042 -0.0112,0.44428 0.26731,0.74079 0.27853,0.29653 0.71936,0.30767 0.44773,0.0113 0.74804,-0.28091 0.30022,-0.28879 0.31154,-0.73651 0.0111,-0.43739 -0.27093,-0.734 -0.28207,-0.29316 -0.71602,-0.30412 z m 0.94999,3.31857 q 0.89544,0.0226 1.43498,0.21891 0.5429,0.19982 0.82994,0.56892 0.28696,0.37255 0.27303,0.92359 -0.0103,0.40639 -0.18332,0.70873 -0.16962,0.30243 -0.48463,0.49434 -0.31156,0.19201 -0.75871,0.29444 -0.4437,0.10251 -1.1945,0.0835 -0.88855,-0.0225 -1.43153,-0.21883 -0.53954,-0.19629 -0.82994,-0.56893 -0.28705,-0.3691 -0.27303,-0.92359 0.0185,-0.73012 0.55247,-1.13362 0.64287,-0.48345 2.06524,-0.4475 z m -0.0161,0.63714 q -1.24329,-0.0314 -1.66388,0.24742 -0.41722,0.28239 -0.42802,0.70945 -0.0108,0.42705 0.39518,0.72679 0.40588,0.30318 1.64571,0.33452 1.24673,0.0315 1.66397,-0.25087 0.41714,-0.27894 0.42811,-0.71288 0.0108,-0.42706 -0.34438,-0.69105 -0.45341,-0.33196 -1.69669,-0.36338 z m -1.40788,3.34514 0.04,0.5972 q -0.42209,0.0652 -0.6169,0.27389 -0.19482,0.20874 -0.20326,0.54281 -0.007,0.28585 0.11825,0.50269 0.12538,0.22028 0.33887,0.36352 0.21694,0.14333 0.58654,0.24572 0.3696,0.10237 0.75533,0.11211 0.0413,10e-4 0.12406,1.4e-4 -0.29148,-0.19347 -0.46928,-0.5219 -0.17444,-0.3249 -0.16495,-0.7003 0.0158,-0.62681 0.48142,-1.04927 0.46558,-0.42245 1.20948,-0.40365 0.76801,0.0194 1.22499,0.48242 0.45689,0.46644 0.43966,1.14835 -0.0125,0.49249 -0.2879,0.89218 -0.27555,0.40314 -0.77335,0.60077 -0.49445,0.20117 -1.42432,0.17767 -0.96776,-0.0245 -1.53761,-0.24908 -0.56639,-0.22453 -0.85549,-0.64883 -0.28918,-0.42085 -0.27508,-0.97878 0.015,-0.59237 0.35163,-0.9595 0.34012,-0.36703 0.93785,-0.42774 z m 2.16411,2.59454 q 0.53382,0.0135 0.85445,-0.26444 0.32054,-0.27449 0.33064,-0.67399 0.0104,-0.41328 -0.31932,-0.72832 -0.32977,-0.31505 -0.86703,-0.32863 -0.48216,-0.0122 -0.79254,0.26945 -0.30703,0.28516 -0.31782,0.71223 -0.0109,0.43049 0.28179,0.71358 0.29601,0.28662 0.82983,0.30012 z m -2.10592,1.2391 0.0386,0.65231 q -0.4771,0.0603 -0.72479,0.31596 -0.24434,0.25919 -0.25374,0.63114 -0.0113,0.44772 0.31836,0.76621 0.32968,0.31849 0.88761,0.33259 0.53038,0.0134 0.84446,-0.27849 0.314,-0.28843 0.32619,-0.77059 0.008,-0.29962 -0.12409,-0.54419 -0.12823,-0.24448 -0.34172,-0.38772 l 0.0905,-0.58012 2.58097,0.55459 -0.0634,2.51068 -0.59237,-0.015 0.0509,-2.01474 -1.35006,-0.30638 q 0.30536,0.46263 0.29274,0.96201 -0.0167,0.66124 -0.48624,1.10427 -0.46954,0.44303 -1.18935,0.42484 -0.68535,-0.0173 -1.17463,-0.42944 -0.60076,-0.5011 -0.57952,-1.34143 0.0174,-0.6888 0.41419,-1.11644 0.39669,-0.4242 1.0354,-0.47009 z m -1.42729,4.11315 5.0489,0.1276 -0.0479,1.8942 q -0.0146,0.57859 -0.17839,0.92252 -0.16041,0.34746 -0.48567,0.53567 -0.3219,0.19174 -0.66974,0.18295 -0.32373,-0.008 -0.60514,-0.19105 -0.28142,-0.18287 -0.4481,-0.54204 -0.14588,0.45466 -0.4758,0.691 -0.33,0.23979 -0.77084,0.22865 -0.35473,-0.009 -0.65741,-0.16825 -0.29933,-0.15575 -0.45908,-0.38034 -0.15974,-0.2246 -0.2374,-0.56084 -0.0743,-0.33271 -0.0621,-0.81488 z m 2.91051,0.74212 -0.0276,1.09175 q -0.0112,0.44428 0.0425,0.63862 0.0693,0.25677 0.24175,0.38864 0.17234,0.13531 0.43752,0.14201 0.25141,0.006 0.44389,-0.1094 0.1959,-0.11567 0.27044,-0.33779 0.078,-0.22203 0.0918,-0.76617 l 0.0255,-1.0091 z m -2.33159,-0.0589 -0.0318,1.25706 q -0.008,0.32374 0.0126,0.45522 0.0355,0.23179 0.12801,0.38921 0.0925,0.15742 0.27252,0.2619 0.18346,0.10457 0.42453,0.11066 0.28241,0.007 0.49271,-0.13228 0.21374,-0.13935 0.30292,-0.39555 0.0925,-0.25269 0.1047,-0.73484 l 0.0295,-1.16752 z m -0.69782,4.02131 5.0489,0.12761 -0.0479,1.89419 q -0.0146,0.5786 -0.1784,0.92252 -0.16041,0.34746 -0.48567,0.53567 -0.32189,0.19175 -0.66973,0.18296 -0.32374,-0.008 -0.60515,-0.19105 -0.28142,-0.18287 -0.4481,-0.54205 -0.14588,0.45466 -0.4758,0.691 -0.33,0.23979 -0.77084,0.22865 -0.35473,-0.009 -0.65741,-0.16825 -0.29933,-0.15575 -0.45908,-0.38034 -0.15973,-0.2246 -0.23739,-0.56084 -0.0743,-0.33271 -0.0621,-0.81487 z m 2.91051,0.74212 -0.0276,1.09175 q -0.0112,0.44428 0.0425,0.63861 0.0693,0.25678 0.24174,0.38865 0.17234,0.1353 0.43753,0.14201 0.25141,0.006 0.44388,-0.10939 0.19591,-0.11567 0.27044,-0.33779 0.078,-0.22204 0.0918,-0.76618 l 0.0255,-1.0091 z m -2.33159,-0.0589 -0.0318,1.25707 q -0.008,0.32372 0.0126,0.45521 0.0355,0.23179 0.128,0.38921 0.0926,0.15742 0.27252,0.26191 0.18346,0.10457 0.42453,0.11066 0.28241,0.007 0.49271,-0.13228 0.21374,-0.13934 0.30292,-0.39556 0.0925,-0.25267 0.1047,-0.73484 l 0.0295,-1.16751 z"
       id="text23"
       aria-label="8095BB" /><path
       style="font-size:7.05556px;line-height:0;font-family:Arial;-inkscape-font-specification:Arial;fill:#000000;stroke:#000000;stroke-width:0.05"
       d="m -19.466322,554.03453 -0.05376,-0.61621 c 0.242944,-0.0573 0.41908,-0.13698 0.528408,-0.23905 0.175324,-0.16925 0.261878,-0.37675 0.259661,-0.62249 -0.0018,-0.19751 -0.0585,-0.37041 -0.170069,-0.51869 -0.144155,-0.19393 -0.353392,-0.34593 -0.627713,-0.45599 -0.274315,-0.11007 -0.664124,-0.16511 -1.169428,-0.16513 0.228719,0.14722 0.399171,0.32828 0.511358,0.54317 0.112193,0.21489 0.169359,0.44061 0.171498,0.67716 0.0037,0.41339 -0.145807,0.76615 -0.448643,1.05829 -0.300517,0.29442 -0.691923,0.44381 -1.174221,0.44817 -0.316946,0.003 -0.61268,-0.0631 -0.887218,-0.1987 -0.272232,-0.13305 -0.481773,-0.31835 -0.628624,-0.55588 -0.146843,-0.23755 -0.221639,-0.5079 -0.224384,-0.81105 -0.0047,-0.51675 0.181002,-0.93989 0.556986,-1.26944 0.378297,-0.32957 1.003807,-0.49831 1.876528,-0.50619 0.976066,-0.009 1.687358,0.16504 2.133878,0.52161 0.388674,0.31115 0.585422,0.73313 0.590243,1.26596 0.0036,0.39731 -0.104861,0.7233 -0.325343,0.97794 -0.220475,0.25693 -0.526844,0.41245 -0.919109,0.46652 z m -2.200107,-2.51235 c -0.213585,0.002 -0.417582,0.0483 -0.611992,0.1399 -0.19438,0.0937 -0.342505,0.22244 -0.44438,0.38643 -0.09958,0.16398 -0.148554,0.33554 -0.146937,0.51467 0.0024,0.26182 0.110106,0.48594 0.323042,0.67235 0.212989,0.18641 0.50092,0.27798 0.863791,0.2747 0.34909,-0.003 0.622697,-0.0986 0.820823,-0.28648 0.20042,-0.18786 0.299355,-0.42303 0.296806,-0.70552 -0.0022,-0.28019 -0.105424,-0.51698 -0.309608,-0.71037 -0.201571,-0.1934 -0.46542,-0.28863 -0.791545,-0.28568 z m -1.609818,2.9499 5.067845,1.89384 0.0065,0.72 -5.031619,2.11264 -0.0068,-0.76134 1.524232,-0.60291 -0.01904,-2.11177 -1.534577,-0.54081 z m 2.087049,1.43846 0.01548,1.71214 1.393882,-0.53972 c 0.423421,-0.16461 0.77143,-0.28719 1.044029,-0.36775 -0.324411,-0.0614 -0.646762,-0.14921 -0.967053,-0.26342 z m -0.70853,3.56189 0.08832,0.61935 c -0.350741,0.0744 -0.603431,0.19724 -0.758071,0.3686 -0.152312,0.17365 -0.227356,0.38334 -0.225132,0.62907 0.0028,0.29168 0.106034,0.5365 0.30982,0.73448 0.203928,0.20027 0.455176,0.29906 0.753744,0.29637 0.284783,-0.003 0.518198,-0.098 0.700244,-0.28539 0.184343,-0.18772 0.275216,-0.42511 0.272618,-0.71219 -0.0014,-0.11713 -0.02565,-0.26277 -0.07285,-0.43689 l 0.544923,0.0639 c -0.0045,0.0414 -0.0065,0.0746 -0.0061,0.1 0.0024,0.26411 0.07345,0.5012 0.213152,0.71124 0.139709,0.21004 0.353104,0.31377 0.640183,0.31117 0.227375,-0.002 0.415,-0.0808 0.562886,-0.23592 0.147893,-0.15522 0.220739,-0.35456 0.218536,-0.598 -0.002,-0.24114 -0.07959,-0.44141 -0.23282,-0.60081 -0.153032,-0.1594 -0.381335,-0.26069 -0.684907,-0.30388 l 0.104606,-0.62109 c 0.416373,0.072 0.739457,0.24138 0.969256,0.50802 0.232093,0.26663 0.349947,0.59976 0.353561,0.99937 0.0022,0.2756 -0.05515,0.52991 -0.172256,0.76296 -0.115029,0.23301 -0.274193,0.41131 -0.477491,0.53488 -0.203284,0.12587 -0.419758,0.18985 -0.649422,0.19192 -0.218182,0.003 -0.417367,-0.0545 -0.597565,-0.1703 -0.180195,-0.11551 -0.324152,-0.28762 -0.431871,-0.51633 -0.0662,0.29918 -0.207638,0.53244 -0.42433,0.69978 -0.214392,0.1673 -0.484647,0.25244 -0.810767,0.25539 -0.440953,0.004 -0.816756,-0.15342 -1.127415,-0.47215 -0.308358,-0.31876 -0.46476,-0.72389 -0.469208,-1.21536 -0.004,-0.44327 0.124713,-0.81307 0.386168,-1.10942 0.261476,-0.29407 0.602168,-0.46366 1.022075,-0.5088 z m 0.02515,3.92046 0.06098,0.6506 c -0.3165,0.0511 -0.554343,0.16463 -0.713528,0.34063 -0.15687,0.17828 -0.234183,0.39144 -0.231938,0.63947 0.0027,0.29856 0.117503,0.55018 0.344456,0.75484 0.226941,0.20466 0.526438,0.30531 0.898492,0.30195 0.353682,-0.003 0.631822,-0.10563 0.834414,-0.30728 0.202615,-0.19936 0.302467,-0.45981 0.299558,-0.78133 -0.0018,-0.19981 -0.04934,-0.37968 -0.142684,-0.53961 -0.09102,-0.15996 -0.209295,-0.28522 -0.354818,-0.37577 l 0.07058,-0.5829 2.598477,0.46574 0.0227,2.51136 -0.592535,0.005 -0.01822,-2.01529 -1.359767,-0.25987 c 0.214027,0.30124 0.322548,0.61837 0.325562,0.95138 0.004,0.44095 -0.145393,0.81439 -0.448083,1.1203 -0.30271,0.30593 -0.694067,0.46106 -1.174072,0.4654 -0.457025,0.004 -0.853251,-0.12551 -1.188673,-0.3889 -0.41173,-0.32012 -0.620129,-0.76039 -0.625197,-1.32077 -0.0042,-0.45932 0.121054,-0.83598 0.375655,-1.12998 0.254603,-0.29171 0.594159,-0.46015 1.018667,-0.50533 z m 1.203324,3.91325 c 0.597125,-0.005 1.077673,0.0511 1.441646,0.16955 0.366282,0.12072 0.649269,0.30077 0.848962,0.54013 0.199708,0.24165 0.301224,0.54621 0.30455,0.91368 0.0023,0.271 -0.05065,0.5092 -0.158908,0.7146 -0.106095,0.20537 -0.261889,0.37559 -0.467382,0.51067 -0.203193,0.13506 -0.452581,0.24181 -0.748164,0.32028 -0.293282,0.0784 -0.690258,0.11994 -1.190926,0.12446 -0.592535,0.005 -1.071937,-0.0512 -1.438205,-0.16959 -0.363966,-0.11844 -0.646954,-0.29848 -0.848962,-0.54012 -0.199694,-0.23936 -0.301214,-0.54392 -0.30456,-0.91367 -0.0044,-0.4869 0.166698,-0.87087 0.513268,-1.15191 0.417274,-0.33681 1.100168,-0.50951 2.048681,-0.51808 z m 0.0057,0.63731 c -0.829087,0.007 -1.380559,0.10898 -1.654413,0.30436 -0.271533,0.19769 -0.406011,0.43892 -0.403434,0.72371 0.0028,0.28479 0.142793,0.5224 0.419868,0.71281 0.277363,0.19273 0.829441,0.28535 1.656235,0.27787 0.831382,-0.007 1.382839,-0.1101 1.654372,-0.3078 0.271554,-0.19539 0.406021,-0.43778 0.403402,-0.72716 -0.0028,-0.28478 -0.125464,-0.51106 -0.367882,-0.67882 -0.309677,-0.21081 -0.87906,-0.31247 -1.708148,-0.30497 z m -1.292303,3.39147 0.06049,0.59548 c -0.279726,0.053 -0.482104,0.15132 -0.607133,0.29488 -0.12503,0.14354 -0.186534,0.3267 -0.184516,0.54946 0.0019,0.19063 0.04702,0.35674 0.135413,0.49834 0.08858,0.1439 0.205632,0.26113 0.351155,0.35169 0.147816,0.0905 0.346021,0.16568 0.594612,0.22545 0.248599,0.0598 0.501508,0.0885 0.75873,0.0861 0.02754,-2.4e-4 0.06887,-10e-4 0.123998,-0.004 -0.198634,-0.12222 -0.360939,-0.29073 -0.486915,-0.50549 -0.123654,-0.21249 -0.18661,-0.4439 -0.188869,-0.69423 -0.0038,-0.41799 0.144626,-0.77304 0.445149,-1.06515 0.300537,-0.29213 0.698843,-0.44044 1.194916,-0.44491 0.51215,-0.005 0.925756,0.14206 1.240818,0.44011 0.315083,0.30032 0.474679,0.67786 0.478788,1.13259 0.0031,0.32843 -0.08269,0.62893 -0.25713,0.90153 -0.174365,0.2749 -0.425125,0.48388 -0.752281,0.62695 -0.324835,0.14535 -0.797299,0.22082 -1.417393,0.22642 -0.645352,0.006 -1.16043,-0.0596 -1.545236,-0.19618 -0.382513,-0.13665 -0.674928,-0.34301 -0.877247,-0.61911 -0.202298,-0.27379 -0.30513,-0.59671 -0.308497,-0.96876 -0.0035,-0.39502 0.102629,-0.71869 0.318525,-0.97099 0.21821,-0.25234 0.525748,-0.40556 0.922614,-0.45967 z m 2.251839,2.51878 c 0.355983,-0.003 0.63761,-0.10112 0.844874,-0.2936 0.207285,-0.19022 0.309725,-0.41852 0.307317,-0.68494 -0.0022,-0.27559 -0.116978,-0.51458 -0.344117,-0.71694 -0.226913,-0.20237 -0.519508,-0.30192 -0.877786,-0.29868 -0.321531,0.003 -0.582471,0.10191 -0.782832,0.29647 -0.198048,0.19702 -0.295783,0.43792 -0.293206,0.72271 0.0028,0.28708 0.104845,0.52159 0.306104,0.7035 0.203786,0.18421 0.483668,0.27469 0.839646,0.27148 z"
       id="text22"
       aria-label="6A3509"
       sodipodi:nodetypes="cccscscsscccsscscscsccccsssccccccccccccccccccccccccccccccsssccccccccccccscscsccccssscsccccccccssscscscsccccccsccscsscccscccsccscccssccssscsccsccscccsccccccss" /></g></svg>
